<svg width="888" height="232" viewBox="0 0 888 232" fill="none" xmlns="http://www.w3.org/2000/svg">
<path d="M233.825 45.336C232.5 45.336 231.398 45.056 230.521 44.496C229.662 43.936 229.009 43.1613 228.561 42.172C228.132 41.1827 227.917 40.044 227.917 38.756V28.704C227.917 27.3787 228.122 26.2213 228.533 25.232C228.962 24.224 229.606 23.44 230.465 22.88C231.342 22.32 232.462 22.04 233.825 22.04C235.188 22.04 236.298 22.32 237.157 22.88C238.034 23.44 238.678 24.224 239.089 25.232C239.518 26.2213 239.733 27.3787 239.733 28.704V38.756C239.733 40.044 239.509 41.1827 239.061 42.172C238.632 43.1613 237.978 43.936 237.101 44.496C236.242 45.056 235.15 45.336 233.825 45.336ZM233.825 42.004C234.404 42.004 234.833 41.8267 235.113 41.472C235.393 41.1173 235.58 40.688 235.673 40.184C235.766 39.68 235.813 39.1853 235.813 38.7V28.76C235.813 28.2373 235.766 27.724 235.673 27.22C235.598 26.6973 235.421 26.2587 235.141 25.904C234.861 25.5493 234.422 25.372 233.825 25.372C233.228 25.372 232.789 25.5493 232.509 25.904C232.229 26.2587 232.042 26.6973 231.949 27.22C231.874 27.724 231.837 28.2373 231.837 28.76V38.7C231.837 39.1853 231.884 39.68 231.977 40.184C232.089 40.688 232.285 41.1173 232.565 41.472C232.845 41.8267 233.265 42.004 233.825 42.004ZM248.418 45.336C246.906 45.336 245.73 45.056 244.89 44.496C244.069 43.936 243.499 43.1427 243.182 42.116C242.865 41.0893 242.706 39.8853 242.706 38.504H246.486C246.486 39.2693 246.533 39.9507 246.626 40.548C246.738 41.1267 246.943 41.584 247.242 41.92C247.559 42.2373 248.017 42.3867 248.614 42.368C249.267 42.368 249.725 42.1627 249.986 41.752C250.266 41.3227 250.443 40.7347 250.518 39.988C250.593 39.2227 250.63 38.336 250.63 37.328C250.63 36.4507 250.574 35.6853 250.462 35.032C250.369 34.3787 250.173 33.8747 249.874 33.52C249.575 33.1467 249.109 32.96 248.474 32.96C247.933 32.96 247.485 33.1467 247.13 33.52C246.775 33.8747 246.514 34.3507 246.346 34.948H243.014L243.238 22.32H253.43V25.792H246.486L246.262 31.252C246.542 30.916 246.943 30.6453 247.466 30.44C248.007 30.2347 248.605 30.1133 249.258 30.076C250.453 30.02 251.423 30.272 252.17 30.832C252.917 31.392 253.467 32.204 253.822 33.268C254.177 34.332 254.354 35.6013 254.354 37.076C254.354 38.2707 254.27 39.372 254.102 40.38C253.953 41.388 253.663 42.2653 253.234 43.012C252.805 43.74 252.198 44.3093 251.414 44.72C250.649 45.1307 249.65 45.336 248.418 45.336ZM264.103 45L270.739 22.32H273.287L266.679 45H264.103ZM261.387 34.78C259.651 34.78 258.409 34.2947 257.663 33.324C256.916 32.3533 256.543 30.9627 256.543 29.152V27.752C256.543 25.904 256.907 24.5227 257.635 23.608C258.363 22.6933 259.613 22.236 261.387 22.236C263.16 22.236 264.411 22.684 265.139 23.58C265.885 24.4573 266.259 25.82 266.259 27.668V29.208C266.259 31.0187 265.885 32.4 265.139 33.352C264.392 34.304 263.141 34.78 261.387 34.78ZM261.387 32.204C261.872 32.204 262.227 32.0733 262.451 31.812C262.675 31.5507 262.824 31.1867 262.899 30.72C262.973 30.2347 263.011 29.6933 263.011 29.096V27.78C263.011 26.8467 262.927 26.128 262.759 25.624C262.591 25.1013 262.133 24.84 261.387 24.84C260.659 24.84 260.211 25.1013 260.043 25.624C259.875 26.128 259.791 26.8467 259.791 27.78V29.124C259.791 29.7213 259.828 30.2533 259.903 30.72C259.977 31.1867 260.127 31.5507 260.351 31.812C260.575 32.0733 260.92 32.204 261.387 32.204ZM275.975 45.084C274.239 45.084 272.997 44.5987 272.251 43.628C271.523 42.6573 271.159 41.2573 271.159 39.428V38.056C271.159 36.208 271.513 34.8267 272.223 33.912C272.951 32.9787 274.201 32.512 275.975 32.512C277.767 32.512 279.027 32.96 279.755 33.856C280.483 34.752 280.847 36.124 280.847 37.972V39.484C280.847 41.3133 280.473 42.704 279.727 43.656C278.98 44.608 277.729 45.084 275.975 45.084ZM275.975 42.48C276.46 42.48 276.815 42.3493 277.039 42.088C277.281 41.8267 277.431 41.4627 277.487 40.996C277.561 40.5293 277.599 39.9973 277.599 39.4V38.056C277.599 37.1227 277.515 36.404 277.347 35.9C277.179 35.3773 276.721 35.116 275.975 35.116C275.247 35.116 274.799 35.3773 274.631 35.9C274.463 36.4227 274.379 37.1413 274.379 38.056V39.4C274.379 40.016 274.416 40.5573 274.491 41.024C274.565 41.472 274.715 41.8267 274.939 42.088C275.163 42.3493 275.508 42.48 275.975 42.48Z" fill="#BFA634"/>
<path d="M360.843 45V26.604C360.731 26.66 360.507 26.744 360.171 26.856C359.853 26.968 359.499 27.08 359.107 27.192C358.715 27.2853 358.351 27.3787 358.015 27.472C357.697 27.5653 357.473 27.64 357.343 27.696V24.812C357.604 24.7187 357.931 24.588 358.323 24.42C358.715 24.252 359.125 24.0653 359.555 23.86C360.003 23.636 360.413 23.3933 360.787 23.132C361.179 22.8707 361.496 22.6 361.739 22.32H364.707V45H360.843ZM374.418 45.336C372.906 45.336 371.73 45.056 370.89 44.496C370.069 43.936 369.499 43.1427 369.182 42.116C368.865 41.0893 368.706 39.8853 368.706 38.504H372.486C372.486 39.2693 372.533 39.9507 372.626 40.548C372.738 41.1267 372.943 41.584 373.242 41.92C373.559 42.2373 374.017 42.3867 374.614 42.368C375.267 42.368 375.725 42.1627 375.986 41.752C376.266 41.3227 376.443 40.7347 376.518 39.988C376.593 39.2227 376.63 38.336 376.63 37.328C376.63 36.4507 376.574 35.6853 376.462 35.032C376.369 34.3787 376.173 33.8747 375.874 33.52C375.575 33.1467 375.109 32.96 374.474 32.96C373.933 32.96 373.485 33.1467 373.13 33.52C372.775 33.8747 372.514 34.3507 372.346 34.948H369.014L369.238 22.32H379.43V25.792H372.486L372.262 31.252C372.542 30.916 372.943 30.6453 373.466 30.44C374.007 30.2347 374.605 30.1133 375.258 30.076C376.453 30.02 377.423 30.272 378.17 30.832C378.917 31.392 379.467 32.204 379.822 33.268C380.177 34.332 380.354 35.6013 380.354 37.076C380.354 38.2707 380.27 39.372 380.102 40.38C379.953 41.388 379.663 42.2653 379.234 43.012C378.805 43.74 378.198 44.3093 377.414 44.72C376.649 45.1307 375.65 45.336 374.418 45.336ZM390.103 45L396.739 22.32H399.287L392.679 45H390.103ZM387.387 34.78C385.651 34.78 384.409 34.2947 383.663 33.324C382.916 32.3533 382.543 30.9627 382.543 29.152V27.752C382.543 25.904 382.907 24.5227 383.635 23.608C384.363 22.6933 385.613 22.236 387.387 22.236C389.16 22.236 390.411 22.684 391.139 23.58C391.885 24.4573 392.259 25.82 392.259 27.668V29.208C392.259 31.0187 391.885 32.4 391.139 33.352C390.392 34.304 389.141 34.78 387.387 34.78ZM387.387 32.204C387.872 32.204 388.227 32.0733 388.451 31.812C388.675 31.5507 388.824 31.1867 388.899 30.72C388.973 30.2347 389.011 29.6933 389.011 29.096V27.78C389.011 26.8467 388.927 26.128 388.759 25.624C388.591 25.1013 388.133 24.84 387.387 24.84C386.659 24.84 386.211 25.1013 386.043 25.624C385.875 26.128 385.791 26.8467 385.791 27.78V29.124C385.791 29.7213 385.828 30.2533 385.903 30.72C385.977 31.1867 386.127 31.5507 386.351 31.812C386.575 32.0733 386.92 32.204 387.387 32.204ZM401.975 45.084C400.239 45.084 398.997 44.5987 398.251 43.628C397.523 42.6573 397.159 41.2573 397.159 39.428V38.056C397.159 36.208 397.513 34.8267 398.223 33.912C398.951 32.9787 400.201 32.512 401.975 32.512C403.767 32.512 405.027 32.96 405.755 33.856C406.483 34.752 406.847 36.124 406.847 37.972V39.484C406.847 41.3133 406.473 42.704 405.727 43.656C404.98 44.608 403.729 45.084 401.975 45.084ZM401.975 42.48C402.46 42.48 402.815 42.3493 403.039 42.088C403.281 41.8267 403.431 41.4627 403.487 40.996C403.561 40.5293 403.599 39.9973 403.599 39.4V38.056C403.599 37.1227 403.515 36.404 403.347 35.9C403.179 35.3773 402.721 35.116 401.975 35.116C401.247 35.116 400.799 35.3773 400.631 35.9C400.463 36.4227 400.379 37.1413 400.379 38.056V39.4C400.379 40.016 400.416 40.5573 400.491 41.024C400.565 41.472 400.715 41.8267 400.939 42.088C401.163 42.3493 401.508 42.48 401.975 42.48Z" fill="#4D4D4D"/>
<path d="M489.267 45.336C487.848 45.336 486.7 45.0747 485.823 44.552C484.964 44.0107 484.339 43.2547 483.947 42.284C483.555 41.2947 483.359 40.1467 483.359 38.84V38.056H487.195C487.195 38.112 487.195 38.2053 487.195 38.336C487.195 38.4667 487.195 38.5973 487.195 38.728C487.214 39.4373 487.279 40.044 487.391 40.548C487.503 41.052 487.708 41.4347 488.007 41.696C488.324 41.9573 488.754 42.088 489.295 42.088C489.874 42.088 490.303 41.948 490.583 41.668C490.882 41.388 491.078 40.9773 491.171 40.436C491.283 39.8947 491.339 39.2507 491.339 38.504C491.339 37.3467 491.152 36.4413 490.779 35.788C490.424 35.116 489.724 34.752 488.679 34.696C488.642 34.696 488.548 34.696 488.399 34.696C488.268 34.696 488.147 34.696 488.035 34.696V31.588C488.128 31.588 488.222 31.588 488.315 31.588C488.427 31.588 488.53 31.588 488.623 31.588C489.65 31.5693 490.359 31.2987 490.751 30.776C491.143 30.2347 491.339 29.376 491.339 28.2C491.339 27.248 491.19 26.5013 490.891 25.96C490.611 25.4187 490.06 25.148 489.239 25.148C488.436 25.148 487.895 25.4467 487.615 26.044C487.354 26.6413 487.214 27.416 487.195 28.368C487.195 28.4987 487.195 28.6387 487.195 28.788C487.195 28.9187 487.195 29.0587 487.195 29.208H483.359V28.116C483.359 26.828 483.583 25.736 484.031 24.84C484.498 23.9253 485.17 23.2347 486.047 22.768C486.924 22.2827 487.988 22.04 489.239 22.04C490.527 22.04 491.61 22.2733 492.487 22.74C493.364 23.2067 494.027 23.888 494.475 24.784C494.942 25.6613 495.175 26.744 495.175 28.032C495.175 29.376 494.895 30.4773 494.335 31.336C493.775 32.1947 493.056 32.7547 492.179 33.016C492.776 33.2027 493.299 33.5293 493.747 33.996C494.195 34.444 494.54 35.0413 494.783 35.788C495.044 36.516 495.175 37.4027 495.175 38.448C495.175 39.8107 494.979 41.0147 494.587 42.06C494.214 43.0867 493.588 43.8893 492.711 44.468C491.852 45.0467 490.704 45.336 489.267 45.336ZM503.774 45.336C502.448 45.336 501.347 45.056 500.47 44.496C499.611 43.936 498.958 43.1613 498.51 42.172C498.08 41.1827 497.866 40.044 497.866 38.756V28.704C497.866 27.3787 498.071 26.2213 498.482 25.232C498.911 24.224 499.555 23.44 500.414 22.88C501.291 22.32 502.411 22.04 503.774 22.04C505.136 22.04 506.247 22.32 507.106 22.88C507.983 23.44 508.627 24.224 509.038 25.232C509.467 26.2213 509.682 27.3787 509.682 28.704V38.756C509.682 40.044 509.458 41.1827 509.01 42.172C508.58 43.1613 507.927 43.936 507.05 44.496C506.191 45.056 505.099 45.336 503.774 45.336ZM503.774 42.004C504.352 42.004 504.782 41.8267 505.062 41.472C505.342 41.1173 505.528 40.688 505.622 40.184C505.715 39.68 505.762 39.1853 505.762 38.7V28.76C505.762 28.2373 505.715 27.724 505.622 27.22C505.547 26.6973 505.37 26.2587 505.09 25.904C504.81 25.5493 504.371 25.372 503.774 25.372C503.176 25.372 502.738 25.5493 502.458 25.904C502.178 26.2587 501.991 26.6973 501.898 27.22C501.823 27.724 501.786 28.2373 501.786 28.76V38.7C501.786 39.1853 501.832 39.68 501.926 40.184C502.038 40.688 502.234 41.1173 502.514 41.472C502.794 41.8267 503.214 42.004 503.774 42.004ZM520.103 45L526.739 22.32H529.287L522.679 45H520.103ZM517.387 34.78C515.651 34.78 514.409 34.2947 513.663 33.324C512.916 32.3533 512.543 30.9627 512.543 29.152V27.752C512.543 25.904 512.907 24.5227 513.635 23.608C514.363 22.6933 515.613 22.236 517.387 22.236C519.16 22.236 520.411 22.684 521.139 23.58C521.885 24.4573 522.259 25.82 522.259 27.668V29.208C522.259 31.0187 521.885 32.4 521.139 33.352C520.392 34.304 519.141 34.78 517.387 34.78ZM517.387 32.204C517.872 32.204 518.227 32.0733 518.451 31.812C518.675 31.5507 518.824 31.1867 518.899 30.72C518.973 30.2347 519.011 29.6933 519.011 29.096V27.78C519.011 26.8467 518.927 26.128 518.759 25.624C518.591 25.1013 518.133 24.84 517.387 24.84C516.659 24.84 516.211 25.1013 516.043 25.624C515.875 26.128 515.791 26.8467 515.791 27.78V29.124C515.791 29.7213 515.828 30.2533 515.903 30.72C515.977 31.1867 516.127 31.5507 516.351 31.812C516.575 32.0733 516.92 32.204 517.387 32.204ZM531.975 45.084C530.239 45.084 528.997 44.5987 528.251 43.628C527.523 42.6573 527.159 41.2573 527.159 39.428V38.056C527.159 36.208 527.513 34.8267 528.223 33.912C528.951 32.9787 530.201 32.512 531.975 32.512C533.767 32.512 535.027 32.96 535.755 33.856C536.483 34.752 536.847 36.124 536.847 37.972V39.484C536.847 41.3133 536.473 42.704 535.727 43.656C534.98 44.608 533.729 45.084 531.975 45.084ZM531.975 42.48C532.46 42.48 532.815 42.3493 533.039 42.088C533.281 41.8267 533.431 41.4627 533.487 40.996C533.561 40.5293 533.599 39.9973 533.599 39.4V38.056C533.599 37.1227 533.515 36.404 533.347 35.9C533.179 35.3773 532.721 35.116 531.975 35.116C531.247 35.116 530.799 35.3773 530.631 35.9C530.463 36.4227 530.379 37.1413 530.379 38.056V39.4C530.379 40.016 530.416 40.5573 530.491 41.024C530.565 41.472 530.715 41.8267 530.939 42.088C531.163 42.3493 531.508 42.48 531.975 42.48Z" fill="#4D4D4D"/>
<path d="M617.321 45.336C615.809 45.336 614.633 45.056 613.793 44.496C612.972 43.936 612.402 43.1427 612.085 42.116C611.768 41.0893 611.609 39.8853 611.609 38.504H615.389C615.389 39.2693 615.436 39.9507 615.529 40.548C615.641 41.1267 615.846 41.584 616.145 41.92C616.462 42.2373 616.92 42.3867 617.517 42.368C618.17 42.368 618.628 42.1627 618.889 41.752C619.169 41.3227 619.346 40.7347 619.421 39.988C619.496 39.2227 619.533 38.336 619.533 37.328C619.533 36.4507 619.477 35.6853 619.365 35.032C619.272 34.3787 619.076 33.8747 618.777 33.52C618.478 33.1467 618.012 32.96 617.377 32.96C616.836 32.96 616.388 33.1467 616.033 33.52C615.678 33.8747 615.417 34.3507 615.249 34.948H611.917L612.141 22.32H622.333V25.792H615.389L615.165 31.252C615.445 30.916 615.846 30.6453 616.369 30.44C616.91 30.2347 617.508 30.1133 618.161 30.076C619.356 30.02 620.326 30.272 621.073 30.832C621.82 31.392 622.37 32.204 622.725 33.268C623.08 34.332 623.257 35.6013 623.257 37.076C623.257 38.2707 623.173 39.372 623.005 40.38C622.856 41.388 622.566 42.2653 622.137 43.012C621.708 43.74 621.101 44.3093 620.317 44.72C619.552 45.1307 618.553 45.336 617.321 45.336ZM631.774 45.336C630.448 45.336 629.347 45.056 628.47 44.496C627.611 43.936 626.958 43.1613 626.51 42.172C626.08 41.1827 625.866 40.044 625.866 38.756V28.704C625.866 27.3787 626.071 26.2213 626.482 25.232C626.911 24.224 627.555 23.44 628.414 22.88C629.291 22.32 630.411 22.04 631.774 22.04C633.136 22.04 634.247 22.32 635.106 22.88C635.983 23.44 636.627 24.224 637.038 25.232C637.467 26.2213 637.682 27.3787 637.682 28.704V38.756C637.682 40.044 637.458 41.1827 637.01 42.172C636.58 43.1613 635.927 43.936 635.05 44.496C634.191 45.056 633.099 45.336 631.774 45.336ZM631.774 42.004C632.352 42.004 632.782 41.8267 633.062 41.472C633.342 41.1173 633.528 40.688 633.622 40.184C633.715 39.68 633.762 39.1853 633.762 38.7V28.76C633.762 28.2373 633.715 27.724 633.622 27.22C633.547 26.6973 633.37 26.2587 633.09 25.904C632.81 25.5493 632.371 25.372 631.774 25.372C631.176 25.372 630.738 25.5493 630.458 25.904C630.178 26.2587 629.991 26.6973 629.898 27.22C629.823 27.724 629.786 28.2373 629.786 28.76V38.7C629.786 39.1853 629.832 39.68 629.926 40.184C630.038 40.688 630.234 41.1173 630.514 41.472C630.794 41.8267 631.214 42.004 631.774 42.004ZM648.103 45L654.739 22.32H657.287L650.679 45H648.103ZM645.387 34.78C643.651 34.78 642.409 34.2947 641.663 33.324C640.916 32.3533 640.543 30.9627 640.543 29.152V27.752C640.543 25.904 640.907 24.5227 641.635 23.608C642.363 22.6933 643.613 22.236 645.387 22.236C647.16 22.236 648.411 22.684 649.139 23.58C649.885 24.4573 650.259 25.82 650.259 27.668V29.208C650.259 31.0187 649.885 32.4 649.139 33.352C648.392 34.304 647.141 34.78 645.387 34.78ZM645.387 32.204C645.872 32.204 646.227 32.0733 646.451 31.812C646.675 31.5507 646.824 31.1867 646.899 30.72C646.973 30.2347 647.011 29.6933 647.011 29.096V27.78C647.011 26.8467 646.927 26.128 646.759 25.624C646.591 25.1013 646.133 24.84 645.387 24.84C644.659 24.84 644.211 25.1013 644.043 25.624C643.875 26.128 643.791 26.8467 643.791 27.78V29.124C643.791 29.7213 643.828 30.2533 643.903 30.72C643.977 31.1867 644.127 31.5507 644.351 31.812C644.575 32.0733 644.92 32.204 645.387 32.204ZM659.975 45.084C658.239 45.084 656.997 44.5987 656.251 43.628C655.523 42.6573 655.159 41.2573 655.159 39.428V38.056C655.159 36.208 655.513 34.8267 656.223 33.912C656.951 32.9787 658.201 32.512 659.975 32.512C661.767 32.512 663.027 32.96 663.755 33.856C664.483 34.752 664.847 36.124 664.847 37.972V39.484C664.847 41.3133 664.473 42.704 663.727 43.656C662.98 44.608 661.729 45.084 659.975 45.084ZM659.975 42.48C660.46 42.48 660.815 42.3493 661.039 42.088C661.281 41.8267 661.431 41.4627 661.487 40.996C661.561 40.5293 661.599 39.9973 661.599 39.4V38.056C661.599 37.1227 661.515 36.404 661.347 35.9C661.179 35.3773 660.721 35.116 659.975 35.116C659.247 35.116 658.799 35.3773 658.631 35.9C658.463 36.4227 658.379 37.1413 658.379 38.056V39.4C658.379 40.016 658.416 40.5573 658.491 41.024C658.565 41.472 658.715 41.8267 658.939 42.088C659.163 42.3493 659.508 42.48 659.975 42.48Z" fill="#4D4D4D"/>
<path d="M741.803 45L746.311 25.288H740.179V22.32H750.119V24.7L745.555 45H741.803ZM758.774 45.336C757.448 45.336 756.347 45.056 755.47 44.496C754.611 43.936 753.958 43.1613 753.51 42.172C753.08 41.1827 752.866 40.044 752.866 38.756V28.704C752.866 27.3787 753.071 26.2213 753.482 25.232C753.911 24.224 754.555 23.44 755.414 22.88C756.291 22.32 757.411 22.04 758.774 22.04C760.136 22.04 761.247 22.32 762.106 22.88C762.983 23.44 763.627 24.224 764.038 25.232C764.467 26.2213 764.682 27.3787 764.682 28.704V38.756C764.682 40.044 764.458 41.1827 764.01 42.172C763.58 43.1613 762.927 43.936 762.05 44.496C761.191 45.056 760.099 45.336 758.774 45.336ZM758.774 42.004C759.352 42.004 759.782 41.8267 760.062 41.472C760.342 41.1173 760.528 40.688 760.622 40.184C760.715 39.68 760.762 39.1853 760.762 38.7V28.76C760.762 28.2373 760.715 27.724 760.622 27.22C760.547 26.6973 760.37 26.2587 760.09 25.904C759.81 25.5493 759.371 25.372 758.774 25.372C758.176 25.372 757.738 25.5493 757.458 25.904C757.178 26.2587 756.991 26.6973 756.898 27.22C756.823 27.724 756.786 28.2373 756.786 28.76V38.7C756.786 39.1853 756.832 39.68 756.926 40.184C757.038 40.688 757.234 41.1173 757.514 41.472C757.794 41.8267 758.214 42.004 758.774 42.004ZM775.103 45L781.739 22.32H784.287L777.679 45H775.103ZM772.387 34.78C770.651 34.78 769.409 34.2947 768.663 33.324C767.916 32.3533 767.543 30.9627 767.543 29.152V27.752C767.543 25.904 767.907 24.5227 768.635 23.608C769.363 22.6933 770.613 22.236 772.387 22.236C774.16 22.236 775.411 22.684 776.139 23.58C776.885 24.4573 777.259 25.82 777.259 27.668V29.208C777.259 31.0187 776.885 32.4 776.139 33.352C775.392 34.304 774.141 34.78 772.387 34.78ZM772.387 32.204C772.872 32.204 773.227 32.0733 773.451 31.812C773.675 31.5507 773.824 31.1867 773.899 30.72C773.973 30.2347 774.011 29.6933 774.011 29.096V27.78C774.011 26.8467 773.927 26.128 773.759 25.624C773.591 25.1013 773.133 24.84 772.387 24.84C771.659 24.84 771.211 25.1013 771.043 25.624C770.875 26.128 770.791 26.8467 770.791 27.78V29.124C770.791 29.7213 770.828 30.2533 770.903 30.72C770.977 31.1867 771.127 31.5507 771.351 31.812C771.575 32.0733 771.92 32.204 772.387 32.204ZM786.975 45.084C785.239 45.084 783.997 44.5987 783.251 43.628C782.523 42.6573 782.159 41.2573 782.159 39.428V38.056C782.159 36.208 782.513 34.8267 783.223 33.912C783.951 32.9787 785.201 32.512 786.975 32.512C788.767 32.512 790.027 32.96 790.755 33.856C791.483 34.752 791.847 36.124 791.847 37.972V39.484C791.847 41.3133 791.473 42.704 790.727 43.656C789.98 44.608 788.729 45.084 786.975 45.084ZM786.975 42.48C787.46 42.48 787.815 42.3493 788.039 42.088C788.281 41.8267 788.431 41.4627 788.487 40.996C788.561 40.5293 788.599 39.9973 788.599 39.4V38.056C788.599 37.1227 788.515 36.404 788.347 35.9C788.179 35.3773 787.721 35.116 786.975 35.116C786.247 35.116 785.799 35.3773 785.631 35.9C785.463 36.4227 785.379 37.1413 785.379 38.056V39.4C785.379 40.016 785.416 40.5573 785.491 41.024C785.565 41.472 785.715 41.8267 785.939 42.088C786.163 42.3493 786.508 42.48 786.975 42.48Z" fill="#4D4D4D"/>
<path d="M233.825 129.336C232.5 129.336 231.398 129.056 230.521 128.496C229.662 127.936 229.009 127.161 228.561 126.172C228.132 125.183 227.917 124.044 227.917 122.756V112.704C227.917 111.379 228.122 110.221 228.533 109.232C228.962 108.224 229.606 107.44 230.465 106.88C231.342 106.32 232.462 106.04 233.825 106.04C235.188 106.04 236.298 106.32 237.157 106.88C238.034 107.44 238.678 108.224 239.089 109.232C239.518 110.221 239.733 111.379 239.733 112.704V122.756C239.733 124.044 239.509 125.183 239.061 126.172C238.632 127.161 237.978 127.936 237.101 128.496C236.242 129.056 235.15 129.336 233.825 129.336ZM233.825 126.004C234.404 126.004 234.833 125.827 235.113 125.472C235.393 125.117 235.58 124.688 235.673 124.184C235.766 123.68 235.813 123.185 235.813 122.7V112.76C235.813 112.237 235.766 111.724 235.673 111.22C235.598 110.697 235.421 110.259 235.141 109.904C234.861 109.549 234.422 109.372 233.825 109.372C233.228 109.372 232.789 109.549 232.509 109.904C232.229 110.259 232.042 110.697 231.949 111.22C231.874 111.724 231.837 112.237 231.837 112.76V122.7C231.837 123.185 231.884 123.68 231.977 124.184C232.089 124.688 232.285 125.117 232.565 125.472C232.845 125.827 233.265 126.004 233.825 126.004ZM248.418 129.336C246.906 129.336 245.73 129.056 244.89 128.496C244.069 127.936 243.499 127.143 243.182 126.116C242.865 125.089 242.706 123.885 242.706 122.504H246.486C246.486 123.269 246.533 123.951 246.626 124.548C246.738 125.127 246.943 125.584 247.242 125.92C247.559 126.237 248.017 126.387 248.614 126.368C249.267 126.368 249.725 126.163 249.986 125.752C250.266 125.323 250.443 124.735 250.518 123.988C250.593 123.223 250.63 122.336 250.63 121.328C250.63 120.451 250.574 119.685 250.462 119.032C250.369 118.379 250.173 117.875 249.874 117.52C249.575 117.147 249.109 116.96 248.474 116.96C247.933 116.96 247.485 117.147 247.13 117.52C246.775 117.875 246.514 118.351 246.346 118.948H243.014L243.238 106.32H253.43V109.792H246.486L246.262 115.252C246.542 114.916 246.943 114.645 247.466 114.44C248.007 114.235 248.605 114.113 249.258 114.076C250.453 114.02 251.423 114.272 252.17 114.832C252.917 115.392 253.467 116.204 253.822 117.268C254.177 118.332 254.354 119.601 254.354 121.076C254.354 122.271 254.27 123.372 254.102 124.38C253.953 125.388 253.663 126.265 253.234 127.012C252.805 127.74 252.198 128.309 251.414 128.72C250.649 129.131 249.65 129.336 248.418 129.336ZM264.103 129L270.739 106.32H273.287L266.679 129H264.103ZM261.387 118.78C259.651 118.78 258.409 118.295 257.663 117.324C256.916 116.353 256.543 114.963 256.543 113.152V111.752C256.543 109.904 256.907 108.523 257.635 107.608C258.363 106.693 259.613 106.236 261.387 106.236C263.16 106.236 264.411 106.684 265.139 107.58C265.885 108.457 266.259 109.82 266.259 111.668V113.208C266.259 115.019 265.885 116.4 265.139 117.352C264.392 118.304 263.141 118.78 261.387 118.78ZM261.387 116.204C261.872 116.204 262.227 116.073 262.451 115.812C262.675 115.551 262.824 115.187 262.899 114.72C262.973 114.235 263.011 113.693 263.011 113.096V111.78C263.011 110.847 262.927 110.128 262.759 109.624C262.591 109.101 262.133 108.84 261.387 108.84C260.659 108.84 260.211 109.101 260.043 109.624C259.875 110.128 259.791 110.847 259.791 111.78V113.124C259.791 113.721 259.828 114.253 259.903 114.72C259.977 115.187 260.127 115.551 260.351 115.812C260.575 116.073 260.92 116.204 261.387 116.204ZM275.975 129.084C274.239 129.084 272.997 128.599 272.251 127.628C271.523 126.657 271.159 125.257 271.159 123.428V122.056C271.159 120.208 271.513 118.827 272.223 117.912C272.951 116.979 274.201 116.512 275.975 116.512C277.767 116.512 279.027 116.96 279.755 117.856C280.483 118.752 280.847 120.124 280.847 121.972V123.484C280.847 125.313 280.473 126.704 279.727 127.656C278.98 128.608 277.729 129.084 275.975 129.084ZM275.975 126.48C276.46 126.48 276.815 126.349 277.039 126.088C277.281 125.827 277.431 125.463 277.487 124.996C277.561 124.529 277.599 123.997 277.599 123.4V122.056C277.599 121.123 277.515 120.404 277.347 119.9C277.179 119.377 276.721 119.116 275.975 119.116C275.247 119.116 274.799 119.377 274.631 119.9C274.463 120.423 274.379 121.141 274.379 122.056V123.4C274.379 124.016 274.416 124.557 274.491 125.024C274.565 125.472 274.715 125.827 274.939 126.088C275.163 126.349 275.508 126.48 275.975 126.48Z" fill="#4D4D4D"/>
<path d="M360.843 129V110.604C360.731 110.66 360.507 110.744 360.171 110.856C359.853 110.968 359.499 111.08 359.107 111.192C358.715 111.285 358.351 111.379 358.015 111.472C357.697 111.565 357.473 111.64 357.343 111.696V108.812C357.604 108.719 357.931 108.588 358.323 108.42C358.715 108.252 359.125 108.065 359.555 107.86C360.003 107.636 360.413 107.393 360.787 107.132C361.179 106.871 361.496 106.6 361.739 106.32H364.707V129H360.843ZM374.418 129.336C372.906 129.336 371.73 129.056 370.89 128.496C370.069 127.936 369.499 127.143 369.182 126.116C368.865 125.089 368.706 123.885 368.706 122.504H372.486C372.486 123.269 372.533 123.951 372.626 124.548C372.738 125.127 372.943 125.584 373.242 125.92C373.559 126.237 374.017 126.387 374.614 126.368C375.267 126.368 375.725 126.163 375.986 125.752C376.266 125.323 376.443 124.735 376.518 123.988C376.593 123.223 376.63 122.336 376.63 121.328C376.63 120.451 376.574 119.685 376.462 119.032C376.369 118.379 376.173 117.875 375.874 117.52C375.575 117.147 375.109 116.96 374.474 116.96C373.933 116.96 373.485 117.147 373.13 117.52C372.775 117.875 372.514 118.351 372.346 118.948H369.014L369.238 106.32H379.43V109.792H372.486L372.262 115.252C372.542 114.916 372.943 114.645 373.466 114.44C374.007 114.235 374.605 114.113 375.258 114.076C376.453 114.02 377.423 114.272 378.17 114.832C378.917 115.392 379.467 116.204 379.822 117.268C380.177 118.332 380.354 119.601 380.354 121.076C380.354 122.271 380.27 123.372 380.102 124.38C379.953 125.388 379.663 126.265 379.234 127.012C378.805 127.74 378.198 128.309 377.414 128.72C376.649 129.131 375.65 129.336 374.418 129.336ZM390.103 129L396.739 106.32H399.287L392.679 129H390.103ZM387.387 118.78C385.651 118.78 384.409 118.295 383.663 117.324C382.916 116.353 382.543 114.963 382.543 113.152V111.752C382.543 109.904 382.907 108.523 383.635 107.608C384.363 106.693 385.613 106.236 387.387 106.236C389.16 106.236 390.411 106.684 391.139 107.58C391.885 108.457 392.259 109.82 392.259 111.668V113.208C392.259 115.019 391.885 116.4 391.139 117.352C390.392 118.304 389.141 118.78 387.387 118.78ZM387.387 116.204C387.872 116.204 388.227 116.073 388.451 115.812C388.675 115.551 388.824 115.187 388.899 114.72C388.973 114.235 389.011 113.693 389.011 113.096V111.78C389.011 110.847 388.927 110.128 388.759 109.624C388.591 109.101 388.133 108.84 387.387 108.84C386.659 108.84 386.211 109.101 386.043 109.624C385.875 110.128 385.791 110.847 385.791 111.78V113.124C385.791 113.721 385.828 114.253 385.903 114.72C385.977 115.187 386.127 115.551 386.351 115.812C386.575 116.073 386.92 116.204 387.387 116.204ZM401.975 129.084C400.239 129.084 398.997 128.599 398.251 127.628C397.523 126.657 397.159 125.257 397.159 123.428V122.056C397.159 120.208 397.513 118.827 398.223 117.912C398.951 116.979 400.201 116.512 401.975 116.512C403.767 116.512 405.027 116.96 405.755 117.856C406.483 118.752 406.847 120.124 406.847 121.972V123.484C406.847 125.313 406.473 126.704 405.727 127.656C404.98 128.608 403.729 129.084 401.975 129.084ZM401.975 126.48C402.46 126.48 402.815 126.349 403.039 126.088C403.281 125.827 403.431 125.463 403.487 124.996C403.561 124.529 403.599 123.997 403.599 123.4V122.056C403.599 121.123 403.515 120.404 403.347 119.9C403.179 119.377 402.721 119.116 401.975 119.116C401.247 119.116 400.799 119.377 400.631 119.9C400.463 120.423 400.379 121.141 400.379 122.056V123.4C400.379 124.016 400.416 124.557 400.491 125.024C400.565 125.472 400.715 125.827 400.939 126.088C401.163 126.349 401.508 126.48 401.975 126.48Z" fill="#4D4D4D"/>
<path d="M489.267 129.336C487.848 129.336 486.7 129.075 485.823 128.552C484.964 128.011 484.339 127.255 483.947 126.284C483.555 125.295 483.359 124.147 483.359 122.84V122.056H487.195C487.195 122.112 487.195 122.205 487.195 122.336C487.195 122.467 487.195 122.597 487.195 122.728C487.214 123.437 487.279 124.044 487.391 124.548C487.503 125.052 487.708 125.435 488.007 125.696C488.324 125.957 488.754 126.088 489.295 126.088C489.874 126.088 490.303 125.948 490.583 125.668C490.882 125.388 491.078 124.977 491.171 124.436C491.283 123.895 491.339 123.251 491.339 122.504C491.339 121.347 491.152 120.441 490.779 119.788C490.424 119.116 489.724 118.752 488.679 118.696C488.642 118.696 488.548 118.696 488.399 118.696C488.268 118.696 488.147 118.696 488.035 118.696V115.588C488.128 115.588 488.222 115.588 488.315 115.588C488.427 115.588 488.53 115.588 488.623 115.588C489.65 115.569 490.359 115.299 490.751 114.776C491.143 114.235 491.339 113.376 491.339 112.2C491.339 111.248 491.19 110.501 490.891 109.96C490.611 109.419 490.06 109.148 489.239 109.148C488.436 109.148 487.895 109.447 487.615 110.044C487.354 110.641 487.214 111.416 487.195 112.368C487.195 112.499 487.195 112.639 487.195 112.788C487.195 112.919 487.195 113.059 487.195 113.208H483.359V112.116C483.359 110.828 483.583 109.736 484.031 108.84C484.498 107.925 485.17 107.235 486.047 106.768C486.924 106.283 487.988 106.04 489.239 106.04C490.527 106.04 491.61 106.273 492.487 106.74C493.364 107.207 494.027 107.888 494.475 108.784C494.942 109.661 495.175 110.744 495.175 112.032C495.175 113.376 494.895 114.477 494.335 115.336C493.775 116.195 493.056 116.755 492.179 117.016C492.776 117.203 493.299 117.529 493.747 117.996C494.195 118.444 494.54 119.041 494.783 119.788C495.044 120.516 495.175 121.403 495.175 122.448C495.175 123.811 494.979 125.015 494.587 126.06C494.214 127.087 493.588 127.889 492.711 128.468C491.852 129.047 490.704 129.336 489.267 129.336ZM503.774 129.336C502.448 129.336 501.347 129.056 500.47 128.496C499.611 127.936 498.958 127.161 498.51 126.172C498.08 125.183 497.866 124.044 497.866 122.756V112.704C497.866 111.379 498.071 110.221 498.482 109.232C498.911 108.224 499.555 107.44 500.414 106.88C501.291 106.32 502.411 106.04 503.774 106.04C505.136 106.04 506.247 106.32 507.106 106.88C507.983 107.44 508.627 108.224 509.038 109.232C509.467 110.221 509.682 111.379 509.682 112.704V122.756C509.682 124.044 509.458 125.183 509.01 126.172C508.58 127.161 507.927 127.936 507.05 128.496C506.191 129.056 505.099 129.336 503.774 129.336ZM503.774 126.004C504.352 126.004 504.782 125.827 505.062 125.472C505.342 125.117 505.528 124.688 505.622 124.184C505.715 123.68 505.762 123.185 505.762 122.7V112.76C505.762 112.237 505.715 111.724 505.622 111.22C505.547 110.697 505.37 110.259 505.09 109.904C504.81 109.549 504.371 109.372 503.774 109.372C503.176 109.372 502.738 109.549 502.458 109.904C502.178 110.259 501.991 110.697 501.898 111.22C501.823 111.724 501.786 112.237 501.786 112.76V122.7C501.786 123.185 501.832 123.68 501.926 124.184C502.038 124.688 502.234 125.117 502.514 125.472C502.794 125.827 503.214 126.004 503.774 126.004ZM520.103 129L526.739 106.32H529.287L522.679 129H520.103ZM517.387 118.78C515.651 118.78 514.409 118.295 513.663 117.324C512.916 116.353 512.543 114.963 512.543 113.152V111.752C512.543 109.904 512.907 108.523 513.635 107.608C514.363 106.693 515.613 106.236 517.387 106.236C519.16 106.236 520.411 106.684 521.139 107.58C521.885 108.457 522.259 109.82 522.259 111.668V113.208C522.259 115.019 521.885 116.4 521.139 117.352C520.392 118.304 519.141 118.78 517.387 118.78ZM517.387 116.204C517.872 116.204 518.227 116.073 518.451 115.812C518.675 115.551 518.824 115.187 518.899 114.72C518.973 114.235 519.011 113.693 519.011 113.096V111.78C519.011 110.847 518.927 110.128 518.759 109.624C518.591 109.101 518.133 108.84 517.387 108.84C516.659 108.84 516.211 109.101 516.043 109.624C515.875 110.128 515.791 110.847 515.791 111.78V113.124C515.791 113.721 515.828 114.253 515.903 114.72C515.977 115.187 516.127 115.551 516.351 115.812C516.575 116.073 516.92 116.204 517.387 116.204ZM531.975 129.084C530.239 129.084 528.997 128.599 528.251 127.628C527.523 126.657 527.159 125.257 527.159 123.428V122.056C527.159 120.208 527.513 118.827 528.223 117.912C528.951 116.979 530.201 116.512 531.975 116.512C533.767 116.512 535.027 116.96 535.755 117.856C536.483 118.752 536.847 120.124 536.847 121.972V123.484C536.847 125.313 536.473 126.704 535.727 127.656C534.98 128.608 533.729 129.084 531.975 129.084ZM531.975 126.48C532.46 126.48 532.815 126.349 533.039 126.088C533.281 125.827 533.431 125.463 533.487 124.996C533.561 124.529 533.599 123.997 533.599 123.4V122.056C533.599 121.123 533.515 120.404 533.347 119.9C533.179 119.377 532.721 119.116 531.975 119.116C531.247 119.116 530.799 119.377 530.631 119.9C530.463 120.423 530.379 121.141 530.379 122.056V123.4C530.379 124.016 530.416 124.557 530.491 125.024C530.565 125.472 530.715 125.827 530.939 126.088C531.163 126.349 531.508 126.48 531.975 126.48Z" fill="#BFA634"/>
<path d="M617.321 129.336C615.809 129.336 614.633 129.056 613.793 128.496C612.972 127.936 612.402 127.143 612.085 126.116C611.768 125.089 611.609 123.885 611.609 122.504H615.389C615.389 123.269 615.436 123.951 615.529 124.548C615.641 125.127 615.846 125.584 616.145 125.92C616.462 126.237 616.92 126.387 617.517 126.368C618.17 126.368 618.628 126.163 618.889 125.752C619.169 125.323 619.346 124.735 619.421 123.988C619.496 123.223 619.533 122.336 619.533 121.328C619.533 120.451 619.477 119.685 619.365 119.032C619.272 118.379 619.076 117.875 618.777 117.52C618.478 117.147 618.012 116.96 617.377 116.96C616.836 116.96 616.388 117.147 616.033 117.52C615.678 117.875 615.417 118.351 615.249 118.948H611.917L612.141 106.32H622.333V109.792H615.389L615.165 115.252C615.445 114.916 615.846 114.645 616.369 114.44C616.91 114.235 617.508 114.113 618.161 114.076C619.356 114.02 620.326 114.272 621.073 114.832C621.82 115.392 622.37 116.204 622.725 117.268C623.08 118.332 623.257 119.601 623.257 121.076C623.257 122.271 623.173 123.372 623.005 124.38C622.856 125.388 622.566 126.265 622.137 127.012C621.708 127.74 621.101 128.309 620.317 128.72C619.552 129.131 618.553 129.336 617.321 129.336ZM631.774 129.336C630.448 129.336 629.347 129.056 628.47 128.496C627.611 127.936 626.958 127.161 626.51 126.172C626.08 125.183 625.866 124.044 625.866 122.756V112.704C625.866 111.379 626.071 110.221 626.482 109.232C626.911 108.224 627.555 107.44 628.414 106.88C629.291 106.32 630.411 106.04 631.774 106.04C633.136 106.04 634.247 106.32 635.106 106.88C635.983 107.44 636.627 108.224 637.038 109.232C637.467 110.221 637.682 111.379 637.682 112.704V122.756C637.682 124.044 637.458 125.183 637.01 126.172C636.58 127.161 635.927 127.936 635.05 128.496C634.191 129.056 633.099 129.336 631.774 129.336ZM631.774 126.004C632.352 126.004 632.782 125.827 633.062 125.472C633.342 125.117 633.528 124.688 633.622 124.184C633.715 123.68 633.762 123.185 633.762 122.7V112.76C633.762 112.237 633.715 111.724 633.622 111.22C633.547 110.697 633.37 110.259 633.09 109.904C632.81 109.549 632.371 109.372 631.774 109.372C631.176 109.372 630.738 109.549 630.458 109.904C630.178 110.259 629.991 110.697 629.898 111.22C629.823 111.724 629.786 112.237 629.786 112.76V122.7C629.786 123.185 629.832 123.68 629.926 124.184C630.038 124.688 630.234 125.117 630.514 125.472C630.794 125.827 631.214 126.004 631.774 126.004ZM648.103 129L654.739 106.32H657.287L650.679 129H648.103ZM645.387 118.78C643.651 118.78 642.409 118.295 641.663 117.324C640.916 116.353 640.543 114.963 640.543 113.152V111.752C640.543 109.904 640.907 108.523 641.635 107.608C642.363 106.693 643.613 106.236 645.387 106.236C647.16 106.236 648.411 106.684 649.139 107.58C649.885 108.457 650.259 109.82 650.259 111.668V113.208C650.259 115.019 649.885 116.4 649.139 117.352C648.392 118.304 647.141 118.78 645.387 118.78ZM645.387 116.204C645.872 116.204 646.227 116.073 646.451 115.812C646.675 115.551 646.824 115.187 646.899 114.72C646.973 114.235 647.011 113.693 647.011 113.096V111.78C647.011 110.847 646.927 110.128 646.759 109.624C646.591 109.101 646.133 108.84 645.387 108.84C644.659 108.84 644.211 109.101 644.043 109.624C643.875 110.128 643.791 110.847 643.791 111.78V113.124C643.791 113.721 643.828 114.253 643.903 114.72C643.977 115.187 644.127 115.551 644.351 115.812C644.575 116.073 644.92 116.204 645.387 116.204ZM659.975 129.084C658.239 129.084 656.997 128.599 656.251 127.628C655.523 126.657 655.159 125.257 655.159 123.428V122.056C655.159 120.208 655.513 118.827 656.223 117.912C656.951 116.979 658.201 116.512 659.975 116.512C661.767 116.512 663.027 116.96 663.755 117.856C664.483 118.752 664.847 120.124 664.847 121.972V123.484C664.847 125.313 664.473 126.704 663.727 127.656C662.98 128.608 661.729 129.084 659.975 129.084ZM659.975 126.48C660.46 126.48 660.815 126.349 661.039 126.088C661.281 125.827 661.431 125.463 661.487 124.996C661.561 124.529 661.599 123.997 661.599 123.4V122.056C661.599 121.123 661.515 120.404 661.347 119.9C661.179 119.377 660.721 119.116 659.975 119.116C659.247 119.116 658.799 119.377 658.631 119.9C658.463 120.423 658.379 121.141 658.379 122.056V123.4C658.379 124.016 658.416 124.557 658.491 125.024C658.565 125.472 658.715 125.827 658.939 126.088C659.163 126.349 659.508 126.48 659.975 126.48Z" fill="#4D4D4D"/>
<path d="M741.803 129L746.311 109.288H740.179V106.32H750.119V108.7L745.555 129H741.803ZM758.774 129.336C757.448 129.336 756.347 129.056 755.47 128.496C754.611 127.936 753.958 127.161 753.51 126.172C753.08 125.183 752.866 124.044 752.866 122.756V112.704C752.866 111.379 753.071 110.221 753.482 109.232C753.911 108.224 754.555 107.44 755.414 106.88C756.291 106.32 757.411 106.04 758.774 106.04C760.136 106.04 761.247 106.32 762.106 106.88C762.983 107.44 763.627 108.224 764.038 109.232C764.467 110.221 764.682 111.379 764.682 112.704V122.756C764.682 124.044 764.458 125.183 764.01 126.172C763.58 127.161 762.927 127.936 762.05 128.496C761.191 129.056 760.099 129.336 758.774 129.336ZM758.774 126.004C759.352 126.004 759.782 125.827 760.062 125.472C760.342 125.117 760.528 124.688 760.622 124.184C760.715 123.68 760.762 123.185 760.762 122.7V112.76C760.762 112.237 760.715 111.724 760.622 111.22C760.547 110.697 760.37 110.259 760.09 109.904C759.81 109.549 759.371 109.372 758.774 109.372C758.176 109.372 757.738 109.549 757.458 109.904C757.178 110.259 756.991 110.697 756.898 111.22C756.823 111.724 756.786 112.237 756.786 112.76V122.7C756.786 123.185 756.832 123.68 756.926 124.184C757.038 124.688 757.234 125.117 757.514 125.472C757.794 125.827 758.214 126.004 758.774 126.004ZM775.103 129L781.739 106.32H784.287L777.679 129H775.103ZM772.387 118.78C770.651 118.78 769.409 118.295 768.663 117.324C767.916 116.353 767.543 114.963 767.543 113.152V111.752C767.543 109.904 767.907 108.523 768.635 107.608C769.363 106.693 770.613 106.236 772.387 106.236C774.16 106.236 775.411 106.684 776.139 107.58C776.885 108.457 777.259 109.82 777.259 111.668V113.208C777.259 115.019 776.885 116.4 776.139 117.352C775.392 118.304 774.141 118.78 772.387 118.78ZM772.387 116.204C772.872 116.204 773.227 116.073 773.451 115.812C773.675 115.551 773.824 115.187 773.899 114.72C773.973 114.235 774.011 113.693 774.011 113.096V111.78C774.011 110.847 773.927 110.128 773.759 109.624C773.591 109.101 773.133 108.84 772.387 108.84C771.659 108.84 771.211 109.101 771.043 109.624C770.875 110.128 770.791 110.847 770.791 111.78V113.124C770.791 113.721 770.828 114.253 770.903 114.72C770.977 115.187 771.127 115.551 771.351 115.812C771.575 116.073 771.92 116.204 772.387 116.204ZM786.975 129.084C785.239 129.084 783.997 128.599 783.251 127.628C782.523 126.657 782.159 125.257 782.159 123.428V122.056C782.159 120.208 782.513 118.827 783.223 117.912C783.951 116.979 785.201 116.512 786.975 116.512C788.767 116.512 790.027 116.96 790.755 117.856C791.483 118.752 791.847 120.124 791.847 121.972V123.484C791.847 125.313 791.473 126.704 790.727 127.656C789.98 128.608 788.729 129.084 786.975 129.084ZM786.975 126.48C787.46 126.48 787.815 126.349 788.039 126.088C788.281 125.827 788.431 125.463 788.487 124.996C788.561 124.529 788.599 123.997 788.599 123.4V122.056C788.599 121.123 788.515 120.404 788.347 119.9C788.179 119.377 787.721 119.116 786.975 119.116C786.247 119.116 785.799 119.377 785.631 119.9C785.463 120.423 785.379 121.141 785.379 122.056V123.4C785.379 124.016 785.416 124.557 785.491 125.024C785.565 125.472 785.715 125.827 785.939 126.088C786.163 126.349 786.508 126.48 786.975 126.48Z" fill="#4D4D4D"/>
<path d="M233.825 213.336C232.5 213.336 231.398 213.056 230.521 212.496C229.662 211.936 229.009 211.161 228.561 210.172C228.132 209.183 227.917 208.044 227.917 206.756V196.704C227.917 195.379 228.122 194.221 228.533 193.232C228.962 192.224 229.606 191.44 230.465 190.88C231.342 190.32 232.462 190.04 233.825 190.04C235.188 190.04 236.298 190.32 237.157 190.88C238.034 191.44 238.678 192.224 239.089 193.232C239.518 194.221 239.733 195.379 239.733 196.704V206.756C239.733 208.044 239.509 209.183 239.061 210.172C238.632 211.161 237.978 211.936 237.101 212.496C236.242 213.056 235.15 213.336 233.825 213.336ZM233.825 210.004C234.404 210.004 234.833 209.827 235.113 209.472C235.393 209.117 235.58 208.688 235.673 208.184C235.766 207.68 235.813 207.185 235.813 206.7V196.76C235.813 196.237 235.766 195.724 235.673 195.22C235.598 194.697 235.421 194.259 235.141 193.904C234.861 193.549 234.422 193.372 233.825 193.372C233.228 193.372 232.789 193.549 232.509 193.904C232.229 194.259 232.042 194.697 231.949 195.22C231.874 195.724 231.837 196.237 231.837 196.76V206.7C231.837 207.185 231.884 207.68 231.977 208.184C232.089 208.688 232.285 209.117 232.565 209.472C232.845 209.827 233.265 210.004 233.825 210.004ZM248.418 213.336C246.906 213.336 245.73 213.056 244.89 212.496C244.069 211.936 243.499 211.143 243.182 210.116C242.865 209.089 242.706 207.885 242.706 206.504H246.486C246.486 207.269 246.533 207.951 246.626 208.548C246.738 209.127 246.943 209.584 247.242 209.92C247.559 210.237 248.017 210.387 248.614 210.368C249.267 210.368 249.725 210.163 249.986 209.752C250.266 209.323 250.443 208.735 250.518 207.988C250.593 207.223 250.63 206.336 250.63 205.328C250.63 204.451 250.574 203.685 250.462 203.032C250.369 202.379 250.173 201.875 249.874 201.52C249.575 201.147 249.109 200.96 248.474 200.96C247.933 200.96 247.485 201.147 247.13 201.52C246.775 201.875 246.514 202.351 246.346 202.948H243.014L243.238 190.32H253.43V193.792H246.486L246.262 199.252C246.542 198.916 246.943 198.645 247.466 198.44C248.007 198.235 248.605 198.113 249.258 198.076C250.453 198.02 251.423 198.272 252.17 198.832C252.917 199.392 253.467 200.204 253.822 201.268C254.177 202.332 254.354 203.601 254.354 205.076C254.354 206.271 254.27 207.372 254.102 208.38C253.953 209.388 253.663 210.265 253.234 211.012C252.805 211.74 252.198 212.309 251.414 212.72C250.649 213.131 249.65 213.336 248.418 213.336ZM264.103 213L270.739 190.32H273.287L266.679 213H264.103ZM261.387 202.78C259.651 202.78 258.409 202.295 257.663 201.324C256.916 200.353 256.543 198.963 256.543 197.152V195.752C256.543 193.904 256.907 192.523 257.635 191.608C258.363 190.693 259.613 190.236 261.387 190.236C263.16 190.236 264.411 190.684 265.139 191.58C265.885 192.457 266.259 193.82 266.259 195.668V197.208C266.259 199.019 265.885 200.4 265.139 201.352C264.392 202.304 263.141 202.78 261.387 202.78ZM261.387 200.204C261.872 200.204 262.227 200.073 262.451 199.812C262.675 199.551 262.824 199.187 262.899 198.72C262.973 198.235 263.011 197.693 263.011 197.096V195.78C263.011 194.847 262.927 194.128 262.759 193.624C262.591 193.101 262.133 192.84 261.387 192.84C260.659 192.84 260.211 193.101 260.043 193.624C259.875 194.128 259.791 194.847 259.791 195.78V197.124C259.791 197.721 259.828 198.253 259.903 198.72C259.977 199.187 260.127 199.551 260.351 199.812C260.575 200.073 260.92 200.204 261.387 200.204ZM275.975 213.084C274.239 213.084 272.997 212.599 272.251 211.628C271.523 210.657 271.159 209.257 271.159 207.428V206.056C271.159 204.208 271.513 202.827 272.223 201.912C272.951 200.979 274.201 200.512 275.975 200.512C277.767 200.512 279.027 200.96 279.755 201.856C280.483 202.752 280.847 204.124 280.847 205.972V207.484C280.847 209.313 280.473 210.704 279.727 211.656C278.98 212.608 277.729 213.084 275.975 213.084ZM275.975 210.48C276.46 210.48 276.815 210.349 277.039 210.088C277.281 209.827 277.431 209.463 277.487 208.996C277.561 208.529 277.599 207.997 277.599 207.4V206.056C277.599 205.123 277.515 204.404 277.347 203.9C277.179 203.377 276.721 203.116 275.975 203.116C275.247 203.116 274.799 203.377 274.631 203.9C274.463 204.423 274.379 205.141 274.379 206.056V207.4C274.379 208.016 274.416 208.557 274.491 209.024C274.565 209.472 274.715 209.827 274.939 210.088C275.163 210.349 275.508 210.48 275.975 210.48Z" fill="#4D4D4D"/>
<path d="M360.843 213V194.604C360.731 194.66 360.507 194.744 360.171 194.856C359.853 194.968 359.499 195.08 359.107 195.192C358.715 195.285 358.351 195.379 358.015 195.472C357.697 195.565 357.473 195.64 357.343 195.696V192.812C357.604 192.719 357.931 192.588 358.323 192.42C358.715 192.252 359.125 192.065 359.555 191.86C360.003 191.636 360.413 191.393 360.787 191.132C361.179 190.871 361.496 190.6 361.739 190.32H364.707V213H360.843ZM374.418 213.336C372.906 213.336 371.73 213.056 370.89 212.496C370.069 211.936 369.499 211.143 369.182 210.116C368.865 209.089 368.706 207.885 368.706 206.504H372.486C372.486 207.269 372.533 207.951 372.626 208.548C372.738 209.127 372.943 209.584 373.242 209.92C373.559 210.237 374.017 210.387 374.614 210.368C375.267 210.368 375.725 210.163 375.986 209.752C376.266 209.323 376.443 208.735 376.518 207.988C376.593 207.223 376.63 206.336 376.63 205.328C376.63 204.451 376.574 203.685 376.462 203.032C376.369 202.379 376.173 201.875 375.874 201.52C375.575 201.147 375.109 200.96 374.474 200.96C373.933 200.96 373.485 201.147 373.13 201.52C372.775 201.875 372.514 202.351 372.346 202.948H369.014L369.238 190.32H379.43V193.792H372.486L372.262 199.252C372.542 198.916 372.943 198.645 373.466 198.44C374.007 198.235 374.605 198.113 375.258 198.076C376.453 198.02 377.423 198.272 378.17 198.832C378.917 199.392 379.467 200.204 379.822 201.268C380.177 202.332 380.354 203.601 380.354 205.076C380.354 206.271 380.27 207.372 380.102 208.38C379.953 209.388 379.663 210.265 379.234 211.012C378.805 211.74 378.198 212.309 377.414 212.72C376.649 213.131 375.65 213.336 374.418 213.336ZM390.103 213L396.739 190.32H399.287L392.679 213H390.103ZM387.387 202.78C385.651 202.78 384.409 202.295 383.663 201.324C382.916 200.353 382.543 198.963 382.543 197.152V195.752C382.543 193.904 382.907 192.523 383.635 191.608C384.363 190.693 385.613 190.236 387.387 190.236C389.16 190.236 390.411 190.684 391.139 191.58C391.885 192.457 392.259 193.82 392.259 195.668V197.208C392.259 199.019 391.885 200.4 391.139 201.352C390.392 202.304 389.141 202.78 387.387 202.78ZM387.387 200.204C387.872 200.204 388.227 200.073 388.451 199.812C388.675 199.551 388.824 199.187 388.899 198.72C388.973 198.235 389.011 197.693 389.011 197.096V195.78C389.011 194.847 388.927 194.128 388.759 193.624C388.591 193.101 388.133 192.84 387.387 192.84C386.659 192.84 386.211 193.101 386.043 193.624C385.875 194.128 385.791 194.847 385.791 195.78V197.124C385.791 197.721 385.828 198.253 385.903 198.72C385.977 199.187 386.127 199.551 386.351 199.812C386.575 200.073 386.92 200.204 387.387 200.204ZM401.975 213.084C400.239 213.084 398.997 212.599 398.251 211.628C397.523 210.657 397.159 209.257 397.159 207.428V206.056C397.159 204.208 397.513 202.827 398.223 201.912C398.951 200.979 400.201 200.512 401.975 200.512C403.767 200.512 405.027 200.96 405.755 201.856C406.483 202.752 406.847 204.124 406.847 205.972V207.484C406.847 209.313 406.473 210.704 405.727 211.656C404.98 212.608 403.729 213.084 401.975 213.084ZM401.975 210.48C402.46 210.48 402.815 210.349 403.039 210.088C403.281 209.827 403.431 209.463 403.487 208.996C403.561 208.529 403.599 207.997 403.599 207.4V206.056C403.599 205.123 403.515 204.404 403.347 203.9C403.179 203.377 402.721 203.116 401.975 203.116C401.247 203.116 400.799 203.377 400.631 203.9C400.463 204.423 400.379 205.141 400.379 206.056V207.4C400.379 208.016 400.416 208.557 400.491 209.024C400.565 209.472 400.715 209.827 400.939 210.088C401.163 210.349 401.508 210.48 401.975 210.48Z" fill="#4D4D4D"/>
<path d="M489.267 213.336C487.848 213.336 486.7 213.075 485.823 212.552C484.964 212.011 484.339 211.255 483.947 210.284C483.555 209.295 483.359 208.147 483.359 206.84V206.056H487.195C487.195 206.112 487.195 206.205 487.195 206.336C487.195 206.467 487.195 206.597 487.195 206.728C487.214 207.437 487.279 208.044 487.391 208.548C487.503 209.052 487.708 209.435 488.007 209.696C488.324 209.957 488.754 210.088 489.295 210.088C489.874 210.088 490.303 209.948 490.583 209.668C490.882 209.388 491.078 208.977 491.171 208.436C491.283 207.895 491.339 207.251 491.339 206.504C491.339 205.347 491.152 204.441 490.779 203.788C490.424 203.116 489.724 202.752 488.679 202.696C488.642 202.696 488.548 202.696 488.399 202.696C488.268 202.696 488.147 202.696 488.035 202.696V199.588C488.128 199.588 488.222 199.588 488.315 199.588C488.427 199.588 488.53 199.588 488.623 199.588C489.65 199.569 490.359 199.299 490.751 198.776C491.143 198.235 491.339 197.376 491.339 196.2C491.339 195.248 491.19 194.501 490.891 193.96C490.611 193.419 490.06 193.148 489.239 193.148C488.436 193.148 487.895 193.447 487.615 194.044C487.354 194.641 487.214 195.416 487.195 196.368C487.195 196.499 487.195 196.639 487.195 196.788C487.195 196.919 487.195 197.059 487.195 197.208H483.359V196.116C483.359 194.828 483.583 193.736 484.031 192.84C484.498 191.925 485.17 191.235 486.047 190.768C486.924 190.283 487.988 190.04 489.239 190.04C490.527 190.04 491.61 190.273 492.487 190.74C493.364 191.207 494.027 191.888 494.475 192.784C494.942 193.661 495.175 194.744 495.175 196.032C495.175 197.376 494.895 198.477 494.335 199.336C493.775 200.195 493.056 200.755 492.179 201.016C492.776 201.203 493.299 201.529 493.747 201.996C494.195 202.444 494.54 203.041 494.783 203.788C495.044 204.516 495.175 205.403 495.175 206.448C495.175 207.811 494.979 209.015 494.587 210.06C494.214 211.087 493.588 211.889 492.711 212.468C491.852 213.047 490.704 213.336 489.267 213.336ZM503.774 213.336C502.448 213.336 501.347 213.056 500.47 212.496C499.611 211.936 498.958 211.161 498.51 210.172C498.08 209.183 497.866 208.044 497.866 206.756V196.704C497.866 195.379 498.071 194.221 498.482 193.232C498.911 192.224 499.555 191.44 500.414 190.88C501.291 190.32 502.411 190.04 503.774 190.04C505.136 190.04 506.247 190.32 507.106 190.88C507.983 191.44 508.627 192.224 509.038 193.232C509.467 194.221 509.682 195.379 509.682 196.704V206.756C509.682 208.044 509.458 209.183 509.01 210.172C508.58 211.161 507.927 211.936 507.05 212.496C506.191 213.056 505.099 213.336 503.774 213.336ZM503.774 210.004C504.352 210.004 504.782 209.827 505.062 209.472C505.342 209.117 505.528 208.688 505.622 208.184C505.715 207.68 505.762 207.185 505.762 206.7V196.76C505.762 196.237 505.715 195.724 505.622 195.22C505.547 194.697 505.37 194.259 505.09 193.904C504.81 193.549 504.371 193.372 503.774 193.372C503.176 193.372 502.738 193.549 502.458 193.904C502.178 194.259 501.991 194.697 501.898 195.22C501.823 195.724 501.786 196.237 501.786 196.76V206.7C501.786 207.185 501.832 207.68 501.926 208.184C502.038 208.688 502.234 209.117 502.514 209.472C502.794 209.827 503.214 210.004 503.774 210.004ZM520.103 213L526.739 190.32H529.287L522.679 213H520.103ZM517.387 202.78C515.651 202.78 514.409 202.295 513.663 201.324C512.916 200.353 512.543 198.963 512.543 197.152V195.752C512.543 193.904 512.907 192.523 513.635 191.608C514.363 190.693 515.613 190.236 517.387 190.236C519.16 190.236 520.411 190.684 521.139 191.58C521.885 192.457 522.259 193.82 522.259 195.668V197.208C522.259 199.019 521.885 200.4 521.139 201.352C520.392 202.304 519.141 202.78 517.387 202.78ZM517.387 200.204C517.872 200.204 518.227 200.073 518.451 199.812C518.675 199.551 518.824 199.187 518.899 198.72C518.973 198.235 519.011 197.693 519.011 197.096V195.78C519.011 194.847 518.927 194.128 518.759 193.624C518.591 193.101 518.133 192.84 517.387 192.84C516.659 192.84 516.211 193.101 516.043 193.624C515.875 194.128 515.791 194.847 515.791 195.78V197.124C515.791 197.721 515.828 198.253 515.903 198.72C515.977 199.187 516.127 199.551 516.351 199.812C516.575 200.073 516.92 200.204 517.387 200.204ZM531.975 213.084C530.239 213.084 528.997 212.599 528.251 211.628C527.523 210.657 527.159 209.257 527.159 207.428V206.056C527.159 204.208 527.513 202.827 528.223 201.912C528.951 200.979 530.201 200.512 531.975 200.512C533.767 200.512 535.027 200.96 535.755 201.856C536.483 202.752 536.847 204.124 536.847 205.972V207.484C536.847 209.313 536.473 210.704 535.727 211.656C534.98 212.608 533.729 213.084 531.975 213.084ZM531.975 210.48C532.46 210.48 532.815 210.349 533.039 210.088C533.281 209.827 533.431 209.463 533.487 208.996C533.561 208.529 533.599 207.997 533.599 207.4V206.056C533.599 205.123 533.515 204.404 533.347 203.9C533.179 203.377 532.721 203.116 531.975 203.116C531.247 203.116 530.799 203.377 530.631 203.9C530.463 204.423 530.379 205.141 530.379 206.056V207.4C530.379 208.016 530.416 208.557 530.491 209.024C530.565 209.472 530.715 209.827 530.939 210.088C531.163 210.349 531.508 210.48 531.975 210.48Z" fill="#4D4D4D"/>
<path d="M617.321 213.336C615.809 213.336 614.633 213.056 613.793 212.496C612.972 211.936 612.402 211.143 612.085 210.116C611.768 209.089 611.609 207.885 611.609 206.504H615.389C615.389 207.269 615.436 207.951 615.529 208.548C615.641 209.127 615.846 209.584 616.145 209.92C616.462 210.237 616.92 210.387 617.517 210.368C618.17 210.368 618.628 210.163 618.889 209.752C619.169 209.323 619.346 208.735 619.421 207.988C619.496 207.223 619.533 206.336 619.533 205.328C619.533 204.451 619.477 203.685 619.365 203.032C619.272 202.379 619.076 201.875 618.777 201.52C618.478 201.147 618.012 200.96 617.377 200.96C616.836 200.96 616.388 201.147 616.033 201.52C615.678 201.875 615.417 202.351 615.249 202.948H611.917L612.141 190.32H622.333V193.792H615.389L615.165 199.252C615.445 198.916 615.846 198.645 616.369 198.44C616.91 198.235 617.508 198.113 618.161 198.076C619.356 198.02 620.326 198.272 621.073 198.832C621.82 199.392 622.37 200.204 622.725 201.268C623.08 202.332 623.257 203.601 623.257 205.076C623.257 206.271 623.173 207.372 623.005 208.38C622.856 209.388 622.566 210.265 622.137 211.012C621.708 211.74 621.101 212.309 620.317 212.72C619.552 213.131 618.553 213.336 617.321 213.336ZM631.774 213.336C630.448 213.336 629.347 213.056 628.47 212.496C627.611 211.936 626.958 211.161 626.51 210.172C626.08 209.183 625.866 208.044 625.866 206.756V196.704C625.866 195.379 626.071 194.221 626.482 193.232C626.911 192.224 627.555 191.44 628.414 190.88C629.291 190.32 630.411 190.04 631.774 190.04C633.136 190.04 634.247 190.32 635.106 190.88C635.983 191.44 636.627 192.224 637.038 193.232C637.467 194.221 637.682 195.379 637.682 196.704V206.756C637.682 208.044 637.458 209.183 637.01 210.172C636.58 211.161 635.927 211.936 635.05 212.496C634.191 213.056 633.099 213.336 631.774 213.336ZM631.774 210.004C632.352 210.004 632.782 209.827 633.062 209.472C633.342 209.117 633.528 208.688 633.622 208.184C633.715 207.68 633.762 207.185 633.762 206.7V196.76C633.762 196.237 633.715 195.724 633.622 195.22C633.547 194.697 633.37 194.259 633.09 193.904C632.81 193.549 632.371 193.372 631.774 193.372C631.176 193.372 630.738 193.549 630.458 193.904C630.178 194.259 629.991 194.697 629.898 195.22C629.823 195.724 629.786 196.237 629.786 196.76V206.7C629.786 207.185 629.832 207.68 629.926 208.184C630.038 208.688 630.234 209.117 630.514 209.472C630.794 209.827 631.214 210.004 631.774 210.004ZM648.103 213L654.739 190.32H657.287L650.679 213H648.103ZM645.387 202.78C643.651 202.78 642.409 202.295 641.663 201.324C640.916 200.353 640.543 198.963 640.543 197.152V195.752C640.543 193.904 640.907 192.523 641.635 191.608C642.363 190.693 643.613 190.236 645.387 190.236C647.16 190.236 648.411 190.684 649.139 191.58C649.885 192.457 650.259 193.82 650.259 195.668V197.208C650.259 199.019 649.885 200.4 649.139 201.352C648.392 202.304 647.141 202.78 645.387 202.78ZM645.387 200.204C645.872 200.204 646.227 200.073 646.451 199.812C646.675 199.551 646.824 199.187 646.899 198.72C646.973 198.235 647.011 197.693 647.011 197.096V195.78C647.011 194.847 646.927 194.128 646.759 193.624C646.591 193.101 646.133 192.84 645.387 192.84C644.659 192.84 644.211 193.101 644.043 193.624C643.875 194.128 643.791 194.847 643.791 195.78V197.124C643.791 197.721 643.828 198.253 643.903 198.72C643.977 199.187 644.127 199.551 644.351 199.812C644.575 200.073 644.92 200.204 645.387 200.204ZM659.975 213.084C658.239 213.084 656.997 212.599 656.251 211.628C655.523 210.657 655.159 209.257 655.159 207.428V206.056C655.159 204.208 655.513 202.827 656.223 201.912C656.951 200.979 658.201 200.512 659.975 200.512C661.767 200.512 663.027 200.96 663.755 201.856C664.483 202.752 664.847 204.124 664.847 205.972V207.484C664.847 209.313 664.473 210.704 663.727 211.656C662.98 212.608 661.729 213.084 659.975 213.084ZM659.975 210.48C660.46 210.48 660.815 210.349 661.039 210.088C661.281 209.827 661.431 209.463 661.487 208.996C661.561 208.529 661.599 207.997 661.599 207.4V206.056C661.599 205.123 661.515 204.404 661.347 203.9C661.179 203.377 660.721 203.116 659.975 203.116C659.247 203.116 658.799 203.377 658.631 203.9C658.463 204.423 658.379 205.141 658.379 206.056V207.4C658.379 208.016 658.416 208.557 658.491 209.024C658.565 209.472 658.715 209.827 658.939 210.088C659.163 210.349 659.508 210.48 659.975 210.48Z" fill="#BFA634"/>
<path d="M741.803 213L746.311 193.288H740.179V190.32H750.119V192.7L745.555 213H741.803ZM758.774 213.336C757.448 213.336 756.347 213.056 755.47 212.496C754.611 211.936 753.958 211.161 753.51 210.172C753.08 209.183 752.866 208.044 752.866 206.756V196.704C752.866 195.379 753.071 194.221 753.482 193.232C753.911 192.224 754.555 191.44 755.414 190.88C756.291 190.32 757.411 190.04 758.774 190.04C760.136 190.04 761.247 190.32 762.106 190.88C762.983 191.44 763.627 192.224 764.038 193.232C764.467 194.221 764.682 195.379 764.682 196.704V206.756C764.682 208.044 764.458 209.183 764.01 210.172C763.58 211.161 762.927 211.936 762.05 212.496C761.191 213.056 760.099 213.336 758.774 213.336ZM758.774 210.004C759.352 210.004 759.782 209.827 760.062 209.472C760.342 209.117 760.528 208.688 760.622 208.184C760.715 207.68 760.762 207.185 760.762 206.7V196.76C760.762 196.237 760.715 195.724 760.622 195.22C760.547 194.697 760.37 194.259 760.09 193.904C759.81 193.549 759.371 193.372 758.774 193.372C758.176 193.372 757.738 193.549 757.458 193.904C757.178 194.259 756.991 194.697 756.898 195.22C756.823 195.724 756.786 196.237 756.786 196.76V206.7C756.786 207.185 756.832 207.68 756.926 208.184C757.038 208.688 757.234 209.117 757.514 209.472C757.794 209.827 758.214 210.004 758.774 210.004ZM775.103 213L781.739 190.32H784.287L777.679 213H775.103ZM772.387 202.78C770.651 202.78 769.409 202.295 768.663 201.324C767.916 200.353 767.543 198.963 767.543 197.152V195.752C767.543 193.904 767.907 192.523 768.635 191.608C769.363 190.693 770.613 190.236 772.387 190.236C774.16 190.236 775.411 190.684 776.139 191.58C776.885 192.457 777.259 193.82 777.259 195.668V197.208C777.259 199.019 776.885 200.4 776.139 201.352C775.392 202.304 774.141 202.78 772.387 202.78ZM772.387 200.204C772.872 200.204 773.227 200.073 773.451 199.812C773.675 199.551 773.824 199.187 773.899 198.72C773.973 198.235 774.011 197.693 774.011 197.096V195.78C774.011 194.847 773.927 194.128 773.759 193.624C773.591 193.101 773.133 192.84 772.387 192.84C771.659 192.84 771.211 193.101 771.043 193.624C770.875 194.128 770.791 194.847 770.791 195.78V197.124C770.791 197.721 770.828 198.253 770.903 198.72C770.977 199.187 771.127 199.551 771.351 199.812C771.575 200.073 771.92 200.204 772.387 200.204ZM786.975 213.084C785.239 213.084 783.997 212.599 783.251 211.628C782.523 210.657 782.159 209.257 782.159 207.428V206.056C782.159 204.208 782.513 202.827 783.223 201.912C783.951 200.979 785.201 200.512 786.975 200.512C788.767 200.512 790.027 200.96 790.755 201.856C791.483 202.752 791.847 204.124 791.847 205.972V207.484C791.847 209.313 791.473 210.704 790.727 211.656C789.98 212.608 788.729 213.084 786.975 213.084ZM786.975 210.48C787.46 210.48 787.815 210.349 788.039 210.088C788.281 209.827 788.431 209.463 788.487 208.996C788.561 208.529 788.599 207.997 788.599 207.4V206.056C788.599 205.123 788.515 204.404 788.347 203.9C788.179 203.377 787.721 203.116 786.975 203.116C786.247 203.116 785.799 203.377 785.631 203.9C785.463 204.423 785.379 205.141 785.379 206.056V207.4C785.379 208.016 785.416 208.557 785.491 209.024C785.565 209.472 785.715 209.827 785.939 210.088C786.163 210.349 786.508 210.48 786.975 210.48Z" fill="#4D4D4D"/>
<rect x="0.5" y="0.5" width="158" height="63" rx="4.5" fill="url(#paint0_linear_969_5382)"/>
<rect x="0.5" y="0.5" width="158" height="63" rx="4.5" stroke="url(#paint1_linear_969_5382)"/>
<path d="M45.9839 45V22.32H55.3079V25.176H50.1279V31.784H54.3559V34.668H50.1279V45H45.9839ZM57.6903 45V22.32H63.1223C64.653 22.32 65.941 22.5067 66.9863 22.88C68.0503 23.2347 68.853 23.8507 69.3943 24.728C69.9543 25.6053 70.2343 26.8 70.2343 28.312C70.2343 29.2267 70.1503 30.048 69.9823 30.776C69.8143 31.504 69.525 32.1293 69.1143 32.652C68.7223 33.156 68.1717 33.548 67.4623 33.828L70.6263 45H66.4823L63.7383 34.612H61.8343V45H57.6903ZM61.8343 32.008H63.1223C63.925 32.008 64.5597 31.896 65.0263 31.672C65.5117 31.4293 65.857 31.056 66.0623 30.552C66.2677 30.0293 66.3703 29.3667 66.3703 28.564C66.3703 27.4253 66.1557 26.576 65.7263 26.016C65.3157 25.4373 64.5223 25.148 63.3463 25.148H61.8343V32.008ZM79.5216 45.308C77.9163 45.308 76.6376 45.0093 75.6856 44.412C74.7336 43.8147 74.0523 42.956 73.6416 41.836C73.2309 40.716 73.0256 39.3907 73.0256 37.86V29.376C73.0256 27.8453 73.2309 26.5387 73.6416 25.456C74.0523 24.3547 74.7336 23.5147 75.6856 22.936C76.6376 22.3573 77.9163 22.068 79.5216 22.068C81.1643 22.068 82.4523 22.3573 83.3856 22.936C84.3376 23.5147 85.0189 24.3547 85.4296 25.456C85.8589 26.5387 86.0736 27.8453 86.0736 29.376V37.888C86.0736 39.4 85.8589 40.716 85.4296 41.836C85.0189 42.9373 84.3376 43.796 83.3856 44.412C82.4523 45.0093 81.1643 45.308 79.5216 45.308ZM79.5216 42.256C80.2123 42.256 80.7163 42.1067 81.0336 41.808C81.3696 41.5093 81.5936 41.0987 81.7056 40.576C81.8176 40.0533 81.8736 39.484 81.8736 38.868V28.424C81.8736 27.7893 81.8176 27.22 81.7056 26.716C81.5936 26.212 81.3696 25.82 81.0336 25.54C80.7163 25.2413 80.2123 25.092 79.5216 25.092C78.8683 25.092 78.3736 25.2413 78.0376 25.54C77.7016 25.82 77.4776 26.212 77.3656 26.716C77.2536 27.22 77.1976 27.7893 77.1976 28.424V38.868C77.1976 39.484 77.2443 40.0533 77.3376 40.576C77.4496 41.0987 77.6736 41.5093 78.0096 41.808C78.3456 42.1067 78.8496 42.256 79.5216 42.256ZM89.2789 45V22.32H92.1629L97.6789 35.256V22.32H101.095V45H98.3509L92.8069 31.448V45H89.2789ZM106.945 45V25.372H103.333V22.32H114.645V25.372H111.089V45H106.945Z" fill="white"/>
<rect y="84" width="159" height="64" rx="5" fill="#1A1A1A"/>
<path d="M62.3906 129.308C61.028 129.308 59.8893 129.047 58.9746 128.524C58.06 127.983 57.3693 127.199 56.9026 126.172C56.436 125.145 56.1746 123.885 56.1186 122.392L59.6746 121.692C59.712 122.569 59.8146 123.344 59.9826 124.016C60.1693 124.688 60.44 125.211 60.7946 125.584C61.168 125.939 61.6533 126.116 62.2506 126.116C62.9226 126.116 63.3986 125.92 63.6786 125.528C63.9586 125.117 64.0986 124.604 64.0986 123.988C64.0986 122.999 63.8746 122.187 63.4266 121.552C62.9786 120.917 62.3813 120.283 61.6346 119.648L58.7786 117.128C57.976 116.437 57.332 115.672 56.8466 114.832C56.38 113.973 56.1466 112.919 56.1466 111.668C56.1466 109.876 56.6693 108.495 57.7146 107.524C58.76 106.553 60.188 106.068 61.9986 106.068C63.0626 106.068 63.9493 106.236 64.6586 106.572C65.368 106.889 65.928 107.337 66.3386 107.916C66.768 108.495 67.0853 109.157 67.2906 109.904C67.496 110.632 67.6266 111.407 67.6826 112.228L64.1546 112.844C64.1173 112.135 64.0333 111.5 63.9026 110.94C63.7906 110.38 63.576 109.941 63.2586 109.624C62.96 109.307 62.512 109.148 61.9146 109.148C61.2986 109.148 60.8226 109.353 60.4866 109.764C60.1693 110.156 60.0106 110.651 60.0106 111.248C60.0106 112.013 60.1693 112.648 60.4866 113.152C60.804 113.637 61.2613 114.141 61.8586 114.664L64.6866 117.156C65.62 117.94 66.4133 118.864 67.0666 119.928C67.7386 120.973 68.0746 122.243 68.0746 123.736C68.0746 124.819 67.832 125.78 67.3466 126.62C66.88 127.46 66.2173 128.123 65.3586 128.608C64.5186 129.075 63.5293 129.308 62.3906 129.308ZM70.7666 129V106.32H74.8546V129H70.7666ZM78.5055 129V106.32H83.8535C85.7015 106.32 87.1388 106.572 88.1655 107.076C89.2108 107.58 89.9482 108.355 90.3775 109.4C90.8255 110.445 91.0495 111.771 91.0495 113.376V121.664C91.0495 123.307 90.8255 124.679 90.3775 125.78C89.9482 126.863 89.2202 127.675 88.1935 128.216C87.1855 128.739 85.7948 129 84.0215 129H78.5055ZM82.6495 126.116H83.9095C84.8615 126.116 85.5428 125.948 85.9535 125.612C86.3642 125.276 86.6162 124.791 86.7095 124.156C86.8028 123.503 86.8495 122.709 86.8495 121.776V113.096C86.8495 112.181 86.7842 111.444 86.6535 110.884C86.5228 110.324 86.2522 109.913 85.8415 109.652C85.4308 109.391 84.7682 109.26 83.8535 109.26H82.6495V126.116ZM94.2314 129V106.32H103.751V109.232H98.3754V115.756H102.603V118.64H98.3754V126.144H103.807V129H94.2314Z" fill="#A9A9A9"/>
<rect y="168" width="159" height="64" rx="5" fill="#1A1A1A"/>
<path d="M52.2919 213V190.32H57.7239C59.2546 190.32 60.5426 190.507 61.5879 190.88C62.6519 191.235 63.4546 191.851 63.9959 192.728C64.5559 193.605 64.8359 194.8 64.8359 196.312C64.8359 197.227 64.7519 198.048 64.5839 198.776C64.4159 199.504 64.1266 200.129 63.7159 200.652C63.3239 201.156 62.7732 201.548 62.0639 201.828L65.2279 213H61.0839L58.3399 202.612H56.4359V213H52.2919ZM56.4359 200.008H57.7239C58.5266 200.008 59.1612 199.896 59.6279 199.672C60.1132 199.429 60.4586 199.056 60.6639 198.552C60.8692 198.029 60.9719 197.367 60.9719 196.564C60.9719 195.425 60.7572 194.576 60.3279 194.016C59.9172 193.437 59.1239 193.148 57.9479 193.148H56.4359V200.008ZM68.1272 213V190.32H77.6472V193.232H72.2712V199.756H76.4992V202.64H72.2712V210.144H77.7032V213H68.1272ZM79.0958 213L83.6318 190.32H88.0558L92.5918 213H88.7558L87.8598 207.764H83.9118L82.9878 213H79.0958ZM84.3318 205.132H87.4118L85.8718 195.612L84.3318 205.132ZM95.0127 213V190.32H100.445C101.975 190.32 103.263 190.507 104.309 190.88C105.373 191.235 106.175 191.851 106.717 192.728C107.277 193.605 107.557 194.8 107.557 196.312C107.557 197.227 107.473 198.048 107.305 198.776C107.137 199.504 106.847 200.129 106.437 200.652C106.045 201.156 105.494 201.548 104.785 201.828L107.949 213H103.805L101.061 202.612H99.1567V213H95.0127ZM99.1567 200.008H100.445C101.247 200.008 101.882 199.896 102.349 199.672C102.834 199.429 103.179 199.056 103.385 198.552C103.59 198.029 103.693 197.367 103.693 196.564C103.693 195.425 103.478 194.576 103.049 194.016C102.638 193.437 101.845 193.148 100.669 193.148H99.1567V200.008Z" fill="#A9A9A9"/>
<defs>
<linearGradient id="paint0_linear_969_5382" x1="1.05653e-05" y1="-42.6667" x2="129.504" y2="102.659" gradientUnits="userSpaceOnUse">
<stop stop-color="#151000"/>
<stop offset="0.603881" stop-color="#2C2405"/>
<stop offset="1" stop-color="#634D05"/>
</linearGradient>
<linearGradient id="paint1_linear_969_5382" x1="21.2" y1="11.2" x2="52.1589" y2="89.0239" gradientUnits="userSpaceOnUse">
<stop stop-color="#856220"/>
<stop offset="0.275" stop-color="#F4E683"/>
<stop offset="0.5" stop-color="#BF923D"/>
<stop offset="0.75" stop-color="#4E341B"/>
<stop offset="1" stop-color="#F1EA82"/>
</linearGradient>
</defs>
</svg>
