<svg width="24" height="24" viewBox="0 0 24 24" fill="none" xmlns="http://www.w3.org/2000/svg">
<path d="M19.874 4.25L20.084 4.26074C20.5706 4.3094 21.0282 4.52426 21.377 4.87305C21.7257 5.22183 21.9406 5.67945 21.9893 6.16602L22 6.37598V17.625C21.9993 18.1883 21.7753 18.7286 21.377 19.127C20.9785 19.5254 20.4376 19.7494 19.874 19.75H4.12598C3.56244 19.7494 3.02153 19.5254 2.62305 19.127C2.27426 18.7782 2.0594 18.3206 2.01074 17.834L2 17.624V6.37598C2.0006 5.81243 2.22456 5.27153 2.62305 4.87305C2.97183 4.52426 3.42945 4.3094 3.91602 4.26074L4.12598 4.25H19.874ZM5.09473 6.25195C4.93038 6.2714 4.77109 6.32395 4.62695 6.40527C4.48292 6.48663 4.35643 6.59596 4.25488 6.72656C4.15329 6.85728 4.07846 7.0072 4.03516 7.16699C3.99194 7.32666 3.98126 7.49324 4.00293 7.65723C4.02466 7.82143 4.0787 7.97995 4.16211 8.12305C4.24414 8.26372 4.35316 8.3864 4.48242 8.48535V8.48633L11.2324 13.7363C11.4518 13.9069 11.7221 14 12 14C12.2779 14 12.5482 13.9069 12.7676 13.7363L19.5176 8.48633L19.5225 8.48242C19.7788 8.27723 19.9448 7.97942 19.9834 7.65332C20.0219 7.32713 19.9301 6.99857 19.7285 6.73926C19.5269 6.47994 19.2309 6.31067 18.9053 6.26758C18.5798 6.22459 18.2503 6.31092 17.9883 6.50879L17.9824 6.51367L12 11.166L6.01758 6.51367H6.0166C5.88872 6.41254 5.74271 6.33691 5.58594 6.29199C5.4267 6.24642 5.25922 6.23254 5.09473 6.25195Z" fill="url(#paint0_linear_212_1928)" stroke="url(#paint1_linear_212_1928)"/>
<defs>
<linearGradient id="paint0_linear_212_1928" x1="2.025" y1="4.09375" x2="16.4371" y2="24.4284" gradientUnits="userSpaceOnUse">
<stop stop-color="#7A96AC"/>
<stop offset="0.18" stop-color="#EAEFF3"/>
<stop offset="0.315" stop-color="#C2D4E1"/>
<stop offset="0.491919" stop-color="white"/>
<stop offset="0.615" stop-color="#D4DEE5"/>
<stop offset="0.785" stop-color="#ABBDC8"/>
<stop offset="0.955" stop-color="#BCCAD7"/>
</linearGradient>
<linearGradient id="paint1_linear_212_1928" x1="2.025" y1="4.09375" x2="16.4371" y2="24.4284" gradientUnits="userSpaceOnUse">
<stop stop-color="#7A96AC"/>
<stop offset="0.18" stop-color="#EAEFF3"/>
<stop offset="0.315" stop-color="#C2D4E1"/>
<stop offset="0.491919" stop-color="white"/>
<stop offset="0.615" stop-color="#D4DEE5"/>
<stop offset="0.785" stop-color="#ABBDC8"/>
<stop offset="0.955" stop-color="#BCCAD7"/>
</linearGradient>
</defs>
</svg>
