<svg width="24" height="24" viewBox="0 0 24 24" fill="none" xmlns="http://www.w3.org/2000/svg">
<path d="M13.2832 2.5H15.8477V4.99805H14.0928C13.7048 4.9982 13.3649 5.19253 13.1357 5.4082C12.9165 5.61462 12.6974 5.93793 12.6973 6.30273V9.10059H15.7988C15.7404 9.77057 15.6688 10.395 15.6055 10.8838C15.5756 11.1141 15.5464 11.3139 15.5234 11.4736H12.6807V21.459H9.5459V11.4727H7.53223V9.11328H9.5459V5.86523C9.5459 5.60973 9.52801 4.76792 9.97168 3.99219C10.3875 3.26537 11.2676 2.50001 13.2832 2.5Z" fill="url(#paint0_linear_212_1924)" stroke="url(#paint1_linear_212_1924)"/>
<defs>
<linearGradient id="paint0_linear_212_1924" x1="16.3472" y1="10.4826" x2="7.03211" y2="10.4891" gradientUnits="userSpaceOnUse">
<stop stop-color="white"/>
<stop offset="1" stop-color="#C0C0C0"/>
</linearGradient>
<linearGradient id="paint1_linear_212_1924" x1="7.2651" y1="2.41581" x2="22.3471" y2="10.2191" gradientUnits="userSpaceOnUse">
<stop stop-color="#7A96AC"/>
<stop offset="0.18" stop-color="#EAEFF3"/>
<stop offset="0.315" stop-color="#C2D4E1"/>
<stop offset="0.491919" stop-color="white"/>
<stop offset="0.615" stop-color="#D4DEE5"/>
<stop offset="0.785" stop-color="#ABBDC8"/>
<stop offset="0.955" stop-color="#BCCAD7"/>
</linearGradient>
</defs>
</svg>
