<svg width="421" height="178" viewBox="0 0 421 178" fill="none" xmlns="http://www.w3.org/2000/svg">
<g filter="url(#filter0_f_416_401)">
<path d="M86.382 50H371L348.139 128H50L86.382 50Z" fill="#FFC711" fill-opacity="0.28"/>
</g>
<path d="M88.9236 55H374.323L351.399 118.382H66L88.9236 55Z" fill="url(#paint0_linear_416_401)"/>
<path d="M378.907 54.809L392.661 54.8088L369.738 118.191L355.983 118.191L378.907 54.809Z" fill="#FDE7AA" fill-opacity="0.75"/>
<path d="M397.246 54.809L411 54.8088L388.076 118.191L374.322 118.191L397.246 54.809Z" fill="#FCE7AA" fill-opacity="0.5"/>
<path d="M151.685 100.588V97.34C152.226 97.34 152.684 97.312 153.057 97.256C153.43 97.1813 153.72 97.06 153.925 96.892C154.13 96.7053 154.28 96.444 154.373 96.108C154.466 95.772 154.513 95.3333 154.513 94.792V77.32H159.133V94.988C159.133 96.2387 158.984 97.284 158.685 98.124C158.386 98.9453 157.854 99.5613 157.089 99.972C156.342 100.383 155.288 100.588 153.925 100.588H151.685ZM167.557 100.28C166.4 100.28 165.411 100.075 164.589 99.664C163.768 99.2347 163.143 98.6187 162.713 97.816C162.303 97.0133 162.097 96.0147 162.097 94.82V88.996C162.097 87.8013 162.303 86.8027 162.713 86C163.143 85.1973 163.768 84.5907 164.589 84.18C165.411 83.7507 166.4 83.536 167.557 83.536C168.715 83.536 169.704 83.7507 170.525 84.18C171.347 84.5907 171.972 85.1973 172.401 86C172.831 86.8027 173.045 87.8013 173.045 88.996V94.82C173.045 96.0147 172.831 97.0133 172.401 97.816C171.972 98.6187 171.347 99.2347 170.525 99.664C169.704 100.075 168.715 100.28 167.557 100.28ZM167.585 97.424C167.94 97.424 168.211 97.3307 168.397 97.144C168.584 96.9387 168.705 96.668 168.761 96.332C168.817 95.9773 168.845 95.576 168.845 95.128V88.716C168.845 88.2493 168.817 87.848 168.761 87.512C168.705 87.176 168.584 86.9053 168.397 86.7C168.211 86.4947 167.94 86.392 167.585 86.392C167.231 86.392 166.96 86.4947 166.773 86.7C166.587 86.9053 166.456 87.176 166.381 87.512C166.325 87.848 166.297 88.2493 166.297 88.716V95.128C166.297 95.576 166.325 95.9773 166.381 96.332C166.456 96.668 166.587 96.9387 166.773 97.144C166.96 97.3307 167.231 97.424 167.585 97.424ZM175.809 100V83.816H180.037V100H175.809ZM175.781 81.156V77.992H180.037V81.156H175.781ZM183.085 100V83.816H187.313V85.44C187.891 84.8613 188.498 84.404 189.133 84.068C189.786 83.7133 190.477 83.536 191.205 83.536C191.877 83.536 192.418 83.704 192.829 84.04C193.258 84.376 193.575 84.824 193.781 85.384C193.986 85.9253 194.089 86.5413 194.089 87.232V100H189.889V87.932C189.889 87.484 189.814 87.148 189.665 86.924C189.534 86.7 189.273 86.588 188.881 86.588C188.657 86.588 188.405 86.6533 188.125 86.784C187.863 86.896 187.593 87.0547 187.313 87.26V100H183.085ZM206.469 100L203.529 77.32H207.449L209.017 91.18L211.005 77.348H214.113L216.185 91.152L217.753 77.32H221.617L218.705 100H214.785L212.573 85.636L210.473 100H206.469ZM224.084 100V83.816H228.312V100H224.084ZM224.056 81.156V77.992H228.312V81.156H224.056ZM236.259 100.168C235.121 100.168 234.234 100 233.599 99.664C232.983 99.3093 232.554 98.8053 232.311 98.152C232.069 97.4987 231.947 96.7053 231.947 95.772V86.588H230.351V83.816H231.947V78.916H236.203V83.816H238.583V86.588H236.203V95.38C236.203 95.884 236.334 96.248 236.595 96.472C236.857 96.6773 237.211 96.78 237.659 96.78C237.883 96.78 238.098 96.7707 238.303 96.752C238.509 96.7147 238.695 96.6867 238.863 96.668V99.972C238.583 100.009 238.201 100.047 237.715 100.084C237.249 100.14 236.763 100.168 236.259 100.168ZM241.098 100V77.32H245.298V85.3C245.895 84.7213 246.52 84.2827 247.174 83.984C247.827 83.6853 248.536 83.536 249.302 83.536C249.955 83.536 250.487 83.704 250.898 84.04C251.327 84.376 251.644 84.824 251.85 85.384C252.055 85.9253 252.158 86.5413 252.158 87.232V100H247.93V87.932C247.93 87.484 247.864 87.148 247.734 86.924C247.603 86.7 247.342 86.588 246.95 86.588C246.726 86.588 246.464 86.6533 246.166 86.784C245.886 86.896 245.596 87.0547 245.298 87.26V100H241.098ZM268.849 100.308C267.132 100.308 265.797 100.019 264.845 99.44C263.893 98.8427 263.221 97.9933 262.829 96.892C262.456 95.772 262.269 94.4187 262.269 92.832V77.32H266.833V93.476C266.833 94.036 266.87 94.5867 266.945 95.128C267.038 95.6693 267.225 96.108 267.505 96.444C267.804 96.78 268.252 96.948 268.849 96.948C269.465 96.948 269.913 96.78 270.193 96.444C270.492 96.108 270.678 95.6693 270.753 95.128C270.828 94.5867 270.865 94.036 270.865 93.476V77.32H275.429V92.832C275.429 94.4187 275.233 95.772 274.841 96.892C274.468 97.9933 273.805 98.8427 272.853 99.44C271.901 100.019 270.566 100.308 268.849 100.308ZM283.244 100.28C281.844 100.28 280.687 99.944 279.772 99.272C278.876 98.5813 278.176 97.5267 277.672 96.108L280.64 94.876C280.92 95.66 281.256 96.276 281.648 96.724C282.04 97.1533 282.498 97.368 283.02 97.368C283.412 97.368 283.702 97.284 283.888 97.116C284.094 96.9293 284.196 96.6773 284.196 96.36C284.196 95.912 284.047 95.5107 283.748 95.156C283.45 94.8013 282.918 94.3067 282.152 93.672L280.64 92.384C279.856 91.712 279.222 91.0493 278.736 90.396C278.27 89.724 278.036 88.8933 278.036 87.904C278.036 87.0267 278.251 86.2613 278.68 85.608C279.128 84.9547 279.716 84.4507 280.444 84.096C281.191 83.7227 281.994 83.536 282.852 83.536C284.196 83.536 285.298 83.9187 286.156 84.684C287.015 85.4307 287.603 86.448 287.92 87.736L285.092 88.968C284.999 88.5573 284.85 88.1747 284.644 87.82C284.458 87.4467 284.224 87.1387 283.944 86.896C283.664 86.6533 283.338 86.532 282.964 86.532C282.628 86.532 282.358 86.6347 282.152 86.84C281.947 87.0453 281.844 87.3067 281.844 87.624C281.844 87.96 282.012 88.3147 282.348 88.688C282.703 89.0613 283.188 89.5093 283.804 90.032L285.316 91.376C285.764 91.768 286.203 92.188 286.632 92.636C287.062 93.0653 287.416 93.5507 287.696 94.092C287.976 94.6147 288.116 95.2213 288.116 95.912C288.116 96.8453 287.892 97.6387 287.444 98.292C286.996 98.9453 286.399 99.44 285.652 99.776C284.924 100.112 284.122 100.28 283.244 100.28Z" fill="#010101"/>
<defs>
<filter id="filter0_f_416_401" x="0" y="0" width="421" height="178" filterUnits="userSpaceOnUse" color-interpolation-filters="sRGB">
<feFlood flood-opacity="0" result="BackgroundImageFix"/>
<feBlend mode="normal" in="SourceGraphic" in2="BackgroundImageFix" result="shape"/>
<feGaussianBlur stdDeviation="25" result="effect1_foregroundBlur_416_401"/>
</filter>
<linearGradient id="paint0_linear_416_401" x1="66" y1="86.6911" x2="374.323" y2="86.6911" gradientUnits="userSpaceOnUse">
<stop stop-color="#D4AF37"/>
<stop offset="1" stop-color="#FFEAB1"/>
</linearGradient>
</defs>
</svg>
