<svg width="124" height="250" viewBox="0 0 124 250" fill="none" xmlns="http://www.w3.org/2000/svg">
<path d="M116 16L124 19V24L116 21V16Z" fill="url(#paint0_linear_250_1790)"/>
<path d="M116 8L124 11V16L116 13V8Z" fill="url(#paint1_linear_250_1790)"/>
<path d="M116 0L124 3V8L116 5V0Z" fill="url(#paint2_linear_250_1790)"/>
<path d="M72.1874 62V51.776H68.1554V49.4H79.1354V51.776H75.1034V62H72.1874ZM80.5424 62V52.316H83.3504V62H80.5424ZM81.9464 50.966C81.4304 50.966 81.0104 50.816 80.6864 50.516C80.3624 50.216 80.2004 49.844 80.2004 49.4C80.2004 48.956 80.3624 48.584 80.6864 48.284C81.0104 47.984 81.4304 47.834 81.9464 47.834C82.4624 47.834 82.8824 47.978 83.2064 48.266C83.5304 48.542 83.6924 48.902 83.6924 49.346C83.6924 49.814 83.5304 50.204 83.2064 50.516C82.8944 50.816 82.4744 50.966 81.9464 50.966ZM91.8784 52.172C92.6464 52.172 93.3304 52.328 93.9304 52.64C94.5424 52.94 95.0224 53.408 95.3704 54.044C95.7184 54.668 95.8924 55.472 95.8924 56.456V62H93.0844V56.888C93.0844 56.108 92.9104 55.532 92.5624 55.16C92.2264 54.788 91.7464 54.602 91.1224 54.602C90.6784 54.602 90.2764 54.698 89.9164 54.89C89.5684 55.07 89.2924 55.352 89.0884 55.736C88.8964 56.12 88.8004 56.612 88.8004 57.212V62H85.9924V52.316H88.6744V54.998L88.1704 54.188C88.5184 53.54 89.0164 53.042 89.6644 52.694C90.3124 52.346 91.0504 52.172 91.8784 52.172ZM102.434 62.144C101.294 62.144 100.406 61.856 99.7697 61.28C99.1337 60.692 98.8157 59.822 98.8157 58.67V50.174H101.624V58.634C101.624 59.042 101.732 59.36 101.948 59.588C102.164 59.804 102.458 59.912 102.83 59.912C103.274 59.912 103.652 59.792 103.964 59.552L104.72 61.532C104.432 61.736 104.084 61.892 103.676 62C103.28 62.096 102.866 62.144 102.434 62.144ZM97.3217 54.692V52.532H104.036V54.692H97.3217Z" fill="url(#paint3_linear_250_1790)"/>
<circle cx="120" cy="56" r="3.5" stroke="url(#paint4_linear_250_1790)"/>
<circle cx="120" cy="56" r="2" fill="url(#paint5_linear_250_1790)"/>
<path d="M40.4486 108.144C39.4886 108.144 38.6006 107.988 37.7846 107.676C36.9806 107.352 36.2786 106.902 35.6786 106.326C35.0906 105.738 34.6286 105.054 34.2926 104.274C33.9566 103.494 33.7886 102.636 33.7886 101.7C33.7886 100.764 33.9566 99.906 34.2926 99.126C34.6286 98.346 35.0966 97.668 35.6966 97.092C36.2966 96.504 36.9986 96.054 37.8026 95.742C38.6186 95.418 39.5066 95.256 40.4666 95.256C41.4386 95.256 42.3326 95.424 43.1486 95.76C43.9766 96.084 44.6786 96.57 45.2546 97.218L44.0846 98.352C43.6046 97.848 43.0646 97.476 42.4646 97.236C41.8646 96.984 41.2226 96.858 40.5386 96.858C39.8306 96.858 39.1706 96.978 38.5586 97.218C37.9586 97.458 37.4366 97.794 36.9926 98.226C36.5486 98.658 36.2006 99.174 35.9486 99.774C35.7086 100.362 35.5886 101.004 35.5886 101.7C35.5886 102.396 35.7086 103.044 35.9486 103.644C36.2006 104.232 36.5486 104.742 36.9926 105.174C37.4366 105.606 37.9586 105.942 38.5586 106.182C39.1706 106.422 39.8306 106.542 40.5386 106.542C41.2226 106.542 41.8646 106.422 42.4646 106.182C43.0646 105.93 43.6046 105.546 44.0846 105.03L45.2546 106.164C44.6786 106.812 43.9766 107.304 43.1486 107.64C42.3326 107.976 41.4326 108.144 40.4486 108.144ZM51.2881 108.108C50.3281 108.108 49.4761 107.898 48.7321 107.478C47.9881 107.058 47.4001 106.482 46.9681 105.75C46.5361 105.006 46.3201 104.166 46.3201 103.23C46.3201 102.282 46.5361 101.442 46.9681 100.71C47.4001 99.978 47.9881 99.408 48.7321 99C49.4761 98.58 50.3281 98.37 51.2881 98.37C52.2361 98.37 53.0821 98.58 53.8261 99C54.5821 99.408 55.1701 99.978 55.5901 100.71C56.0221 101.43 56.2381 102.27 56.2381 103.23C56.2381 104.178 56.0221 105.018 55.5901 105.75C55.1701 106.482 54.5821 107.058 53.8261 107.478C53.0821 107.898 52.2361 108.108 51.2881 108.108ZM51.2881 106.596C51.9001 106.596 52.4461 106.458 52.9261 106.182C53.4181 105.906 53.8021 105.516 54.0781 105.012C54.3541 104.496 54.4921 103.902 54.4921 103.23C54.4921 102.546 54.3541 101.958 54.0781 101.466C53.8021 100.962 53.4181 100.572 52.9261 100.296C52.4461 100.02 51.9001 99.882 51.2881 99.882C50.6761 99.882 50.1301 100.02 49.6501 100.296C49.1701 100.572 48.7861 100.962 48.4981 101.466C48.2101 101.958 48.0661 102.546 48.0661 103.23C48.0661 103.902 48.2101 104.496 48.4981 105.012C48.7861 105.516 49.1701 105.906 49.6501 106.182C50.1301 106.458 50.6761 106.596 51.2881 106.596ZM64.498 108V105.984L64.408 105.606V102.168C64.408 101.436 64.192 100.872 63.76 100.476C63.34 100.068 62.704 99.864 61.852 99.864C61.288 99.864 60.736 99.96 60.196 100.152C59.656 100.332 59.2 100.578 58.828 100.89L58.108 99.594C58.6 99.198 59.188 98.898 59.872 98.694C60.568 98.478 61.294 98.37 62.05 98.37C63.358 98.37 64.366 98.688 65.074 99.324C65.782 99.96 66.136 100.932 66.136 102.24V108H64.498ZM61.366 108.108C60.658 108.108 60.034 107.988 59.494 107.748C58.966 107.508 58.558 107.178 58.27 106.758C57.982 106.326 57.838 105.84 57.838 105.3C57.838 104.784 57.958 104.316 58.198 103.896C58.45 103.476 58.852 103.14 59.404 102.888C59.968 102.636 60.724 102.51 61.672 102.51H64.696V103.752H61.744C60.88 103.752 60.298 103.896 59.998 104.184C59.698 104.472 59.548 104.82 59.548 105.228C59.548 105.696 59.734 106.074 60.106 106.362C60.478 106.638 60.994 106.776 61.654 106.776C62.302 106.776 62.866 106.632 63.346 106.344C63.838 106.056 64.192 105.636 64.408 105.084L64.75 106.272C64.522 106.836 64.12 107.286 63.544 107.622C62.968 107.946 62.242 108.108 61.366 108.108ZM72.6458 108.108C71.6858 108.108 70.9418 107.85 70.4138 107.334C69.8858 106.818 69.6218 106.08 69.6218 105.12V96.372H71.3498V105.048C71.3498 105.564 71.4758 105.96 71.7278 106.236C71.9918 106.512 72.3638 106.65 72.8438 106.65C73.3838 106.65 73.8338 106.5 74.1938 106.2L74.7338 107.442C74.4698 107.67 74.1518 107.838 73.7798 107.946C73.4198 108.054 73.0418 108.108 72.6458 108.108ZM68.0018 99.882V98.46H74.0858V99.882H68.0018ZM76.859 108V98.46H78.587V108H76.859ZM77.723 96.624C77.387 96.624 77.105 96.516 76.877 96.3C76.661 96.084 76.553 95.82 76.553 95.508C76.553 95.184 76.661 94.914 76.877 94.698C77.105 94.482 77.387 94.374 77.723 94.374C78.059 94.374 78.335 94.482 78.551 94.698C78.779 94.902 78.893 95.16 78.893 95.472C78.893 95.796 78.785 96.072 78.569 96.3C78.353 96.516 78.071 96.624 77.723 96.624ZM87.0163 98.37C87.7963 98.37 88.4803 98.52 89.0683 98.82C89.6683 99.12 90.1363 99.576 90.4723 100.188C90.8083 100.8 90.9763 101.574 90.9763 102.51V108H89.2483V102.708C89.2483 101.784 89.0203 101.088 88.5643 100.62C88.1203 100.152 87.4903 99.918 86.6743 99.918C86.0623 99.918 85.5283 100.038 85.0723 100.278C84.6163 100.518 84.2623 100.872 84.0103 101.34C83.7703 101.808 83.6503 102.39 83.6503 103.086V108H81.9223V98.46H83.5783V101.034L83.3083 100.35C83.6203 99.726 84.1003 99.24 84.7483 98.892C85.3963 98.544 86.1523 98.37 87.0163 98.37ZM98.3863 111.6C97.5103 111.6 96.6583 111.474 95.8303 111.222C95.0143 110.982 94.3483 110.634 93.8323 110.178L94.6603 108.846C95.1043 109.23 95.6503 109.53 96.2983 109.746C96.9463 109.974 97.6243 110.088 98.3323 110.088C99.4603 110.088 100.288 109.824 100.816 109.296C101.344 108.768 101.608 107.964 101.608 106.884V104.868L101.788 102.978L101.698 101.07V98.46H103.336V106.704C103.336 108.384 102.916 109.62 102.076 110.412C101.236 111.204 100.006 111.6 98.3863 111.6ZM98.1703 107.604C97.2463 107.604 96.4183 107.412 95.6863 107.028C94.9663 106.632 94.3903 106.086 93.9583 105.39C93.5383 104.694 93.3283 103.89 93.3283 102.978C93.3283 102.054 93.5383 101.25 93.9583 100.566C94.3903 99.87 94.9663 99.33 95.6863 98.946C96.4183 98.562 97.2463 98.37 98.1703 98.37C98.9863 98.37 99.7303 98.538 100.402 98.874C101.074 99.198 101.608 99.702 102.004 100.386C102.412 101.07 102.616 101.934 102.616 102.978C102.616 104.01 102.412 104.868 102.004 105.552C101.608 106.236 101.074 106.752 100.402 107.1C99.7303 107.436 98.9863 107.604 98.1703 107.604ZM98.3683 106.092C99.0043 106.092 99.5683 105.96 100.06 105.696C100.552 105.432 100.936 105.066 101.212 104.598C101.5 104.13 101.644 103.59 101.644 102.978C101.644 102.366 101.5 101.826 101.212 101.358C100.936 100.89 100.552 100.53 100.06 100.278C99.5683 100.014 99.0043 99.882 98.3683 99.882C97.7323 99.882 97.1623 100.014 96.6583 100.278C96.1663 100.53 95.7763 100.89 95.4883 101.358C95.2123 101.826 95.0743 102.366 95.0743 102.978C95.0743 103.59 95.2123 104.13 95.4883 104.598C95.7763 105.066 96.1663 105.432 96.6583 105.696C97.1623 105.96 97.7323 106.092 98.3683 106.092Z" fill="url(#paint6_linear_250_1790)"/>
<circle cx="120" cy="102" r="3.5" stroke="url(#paint7_linear_250_1790)"/>
<path d="M69.7633 154V141.4H74.6773C75.7813 141.4 76.7233 141.574 77.5033 141.922C78.2833 142.27 78.8833 142.774 79.3033 143.434C79.7233 144.094 79.9333 144.88 79.9333 145.792C79.9333 146.704 79.7233 147.49 79.3033 148.15C78.8833 148.798 78.2833 149.302 77.5033 149.662C76.7233 150.01 75.7813 150.184 74.6773 150.184H70.7533L71.5633 149.338V154H69.7633ZM71.5633 149.518L70.7533 148.618H74.6233C75.7753 148.618 76.6453 148.372 77.2333 147.88C77.8333 147.388 78.1333 146.692 78.1333 145.792C78.1333 144.892 77.8333 144.196 77.2333 143.704C76.6453 143.212 75.7753 142.966 74.6233 142.966H70.7533L71.5633 142.066V149.518ZM82.6138 154V141.4H87.5278C88.6318 141.4 89.5738 141.574 90.3538 141.922C91.1338 142.27 91.7338 142.774 92.1538 143.434C92.5738 144.094 92.7838 144.88 92.7838 145.792C92.7838 146.704 92.5738 147.49 92.1538 148.15C91.7338 148.798 91.1338 149.302 90.3538 149.662C89.5738 150.01 88.6318 150.184 87.5278 150.184H83.6038L84.4138 149.338V154H82.6138ZM84.4138 149.518L83.6038 148.618H87.4738C88.6258 148.618 89.4958 148.372 90.0838 147.88C90.6838 147.388 90.9838 146.692 90.9838 145.792C90.9838 144.892 90.6838 144.196 90.0838 143.704C89.4958 143.212 88.6258 142.966 87.4738 142.966H83.6038L84.4138 142.066V149.518ZM97.0842 147.358H103.582V148.906H97.0842V147.358ZM97.2642 154H95.4642V141.4H104.356V142.966H97.2642V154Z" fill="url(#paint8_linear_250_1790)"/>
<circle cx="120" cy="148" r="3.5" stroke="url(#paint9_linear_250_1790)"/>
<path d="M18.3407 200L14.1287 187.4H15.9827L19.8527 199.028H18.9167L22.9307 187.4H24.5867L28.5107 199.028H27.6107L31.5347 187.4H33.2447L29.0327 200H27.1427L23.4707 189.218H23.9567L20.2667 200H18.3407ZM34.8615 200V190.46H36.5175V193.052L36.3555 192.404C36.6195 191.744 37.0635 191.24 37.6875 190.892C38.3115 190.544 39.0795 190.37 39.9915 190.37V192.044C39.9195 192.032 39.8475 192.026 39.7755 192.026C39.7155 192.026 39.6555 192.026 39.5955 192.026C38.6715 192.026 37.9395 192.302 37.3995 192.854C36.8595 193.406 36.5895 194.204 36.5895 195.248V200H34.8615ZM47.3761 200V197.984L47.2861 197.606V194.168C47.2861 193.436 47.0701 192.872 46.6381 192.476C46.2181 192.068 45.5821 191.864 44.7301 191.864C44.1661 191.864 43.6141 191.96 43.0741 192.152C42.5341 192.332 42.0781 192.578 41.7061 192.89L40.9861 191.594C41.4781 191.198 42.0661 190.898 42.7501 190.694C43.4461 190.478 44.1721 190.37 44.9281 190.37C46.2361 190.37 47.2441 190.688 47.9521 191.324C48.6601 191.96 49.0141 192.932 49.0141 194.24V200H47.3761ZM44.2441 200.108C43.5361 200.108 42.9121 199.988 42.3721 199.748C41.8441 199.508 41.4361 199.178 41.1481 198.758C40.8601 198.326 40.7161 197.84 40.7161 197.3C40.7161 196.784 40.8361 196.316 41.0761 195.896C41.3281 195.476 41.7301 195.14 42.2821 194.888C42.8461 194.636 43.6021 194.51 44.5501 194.51H47.5741V195.752H44.6221C43.7581 195.752 43.1761 195.896 42.8761 196.184C42.5761 196.472 42.4261 196.82 42.4261 197.228C42.4261 197.696 42.6121 198.074 42.9841 198.362C43.3561 198.638 43.8721 198.776 44.5321 198.776C45.1801 198.776 45.7441 198.632 46.2241 198.344C46.7161 198.056 47.0701 197.636 47.2861 197.084L47.6281 198.272C47.4001 198.836 46.9981 199.286 46.4221 199.622C45.8461 199.946 45.1201 200.108 44.2441 200.108ZM57.3059 200.108C56.5139 200.108 55.7879 199.928 55.1279 199.568C54.4799 199.196 53.9579 198.65 53.5619 197.93C53.1779 197.21 52.9859 196.31 52.9859 195.23C52.9859 194.15 53.1719 193.25 53.5439 192.53C53.9279 191.81 54.4439 191.27 55.0919 190.91C55.7519 190.55 56.4899 190.37 57.3059 190.37C58.2419 190.37 59.0699 190.574 59.7899 190.982C60.5099 191.39 61.0799 191.96 61.4999 192.692C61.9199 193.412 62.1299 194.258 62.1299 195.23C62.1299 196.202 61.9199 197.054 61.4999 197.786C61.0799 198.518 60.5099 199.088 59.7899 199.496C59.0699 199.904 58.2419 200.108 57.3059 200.108ZM52.2479 203.492V190.46H53.9039V193.034L53.7959 195.248L53.9759 197.462V203.492H52.2479ZM57.1619 198.596C57.7739 198.596 58.3199 198.458 58.7999 198.182C59.2919 197.906 59.6759 197.516 59.9519 197.012C60.2399 196.496 60.3839 195.902 60.3839 195.23C60.3839 194.546 60.2399 193.958 59.9519 193.466C59.6759 192.962 59.2919 192.572 58.7999 192.296C58.3199 192.02 57.7739 191.882 57.1619 191.882C56.5619 191.882 56.0159 192.02 55.5239 192.296C55.0439 192.572 54.6599 192.962 54.3719 193.466C54.0959 193.958 53.9579 194.546 53.9579 195.23C53.9579 195.902 54.0959 196.496 54.3719 197.012C54.6599 197.516 55.0439 197.906 55.5239 198.182C56.0159 198.458 56.5619 198.596 57.1619 198.596ZM69.6114 200.108C68.8194 200.108 68.0934 199.928 67.4334 199.568C66.7854 199.196 66.2634 198.65 65.8674 197.93C65.4834 197.21 65.2914 196.31 65.2914 195.23C65.2914 194.15 65.4774 193.25 65.8494 192.53C66.2334 191.81 66.7494 191.27 67.3974 190.91C68.0574 190.55 68.7954 190.37 69.6114 190.37C70.5474 190.37 71.3754 190.574 72.0954 190.982C72.8154 191.39 73.3854 191.96 73.8054 192.692C74.2254 193.412 74.4354 194.258 74.4354 195.23C74.4354 196.202 74.2254 197.054 73.8054 197.786C73.3854 198.518 72.8154 199.088 72.0954 199.496C71.3754 199.904 70.5474 200.108 69.6114 200.108ZM64.5534 203.492V190.46H66.2094V193.034L66.1014 195.248L66.2814 197.462V203.492H64.5534ZM69.4674 198.596C70.0794 198.596 70.6254 198.458 71.1054 198.182C71.5974 197.906 71.9814 197.516 72.2574 197.012C72.5454 196.496 72.6894 195.902 72.6894 195.23C72.6894 194.546 72.5454 193.958 72.2574 193.466C71.9814 192.962 71.5974 192.572 71.1054 192.296C70.6254 192.02 70.0794 191.882 69.4674 191.882C68.8674 191.882 68.3214 192.02 67.8294 192.296C67.3494 192.572 66.9654 192.962 66.6774 193.466C66.4014 193.958 66.2634 194.546 66.2634 195.23C66.2634 195.902 66.4014 196.496 66.6774 197.012C66.9654 197.516 67.3494 197.906 67.8294 198.182C68.3214 198.458 68.8674 198.596 69.4674 198.596ZM76.859 200V190.46H78.587V200H76.859ZM77.723 188.624C77.387 188.624 77.105 188.516 76.877 188.3C76.661 188.084 76.553 187.82 76.553 187.508C76.553 187.184 76.661 186.914 76.877 186.698C77.105 186.482 77.387 186.374 77.723 186.374C78.059 186.374 78.335 186.482 78.551 186.698C78.779 186.902 78.893 187.16 78.893 187.472C78.893 187.796 78.785 188.072 78.569 188.3C78.353 188.516 78.071 188.624 77.723 188.624ZM87.0163 190.37C87.7963 190.37 88.4803 190.52 89.0683 190.82C89.6683 191.12 90.1363 191.576 90.4723 192.188C90.8083 192.8 90.9763 193.574 90.9763 194.51V200H89.2483V194.708C89.2483 193.784 89.0203 193.088 88.5643 192.62C88.1203 192.152 87.4903 191.918 86.6743 191.918C86.0623 191.918 85.5283 192.038 85.0723 192.278C84.6163 192.518 84.2623 192.872 84.0103 193.34C83.7703 193.808 83.6503 194.39 83.6503 195.086V200H81.9223V190.46H83.5783V193.034L83.3083 192.35C83.6203 191.726 84.1003 191.24 84.7483 190.892C85.3963 190.544 86.1523 190.37 87.0163 190.37ZM98.3863 203.6C97.5103 203.6 96.6583 203.474 95.8303 203.222C95.0143 202.982 94.3483 202.634 93.8323 202.178L94.6603 200.846C95.1043 201.23 95.6503 201.53 96.2983 201.746C96.9463 201.974 97.6243 202.088 98.3323 202.088C99.4603 202.088 100.288 201.824 100.816 201.296C101.344 200.768 101.608 199.964 101.608 198.884V196.868L101.788 194.978L101.698 193.07V190.46H103.336V198.704C103.336 200.384 102.916 201.62 102.076 202.412C101.236 203.204 100.006 203.6 98.3863 203.6ZM98.1703 199.604C97.2463 199.604 96.4183 199.412 95.6863 199.028C94.9663 198.632 94.3903 198.086 93.9583 197.39C93.5383 196.694 93.3283 195.89 93.3283 194.978C93.3283 194.054 93.5383 193.25 93.9583 192.566C94.3903 191.87 94.9663 191.33 95.6863 190.946C96.4183 190.562 97.2463 190.37 98.1703 190.37C98.9863 190.37 99.7303 190.538 100.402 190.874C101.074 191.198 101.608 191.702 102.004 192.386C102.412 193.07 102.616 193.934 102.616 194.978C102.616 196.01 102.412 196.868 102.004 197.552C101.608 198.236 101.074 198.752 100.402 199.1C99.7303 199.436 98.9863 199.604 98.1703 199.604ZM98.3683 198.092C99.0043 198.092 99.5683 197.96 100.06 197.696C100.552 197.432 100.936 197.066 101.212 196.598C101.5 196.13 101.644 195.59 101.644 194.978C101.644 194.366 101.5 193.826 101.212 193.358C100.936 192.89 100.552 192.53 100.06 192.278C99.5683 192.014 99.0043 191.882 98.3683 191.882C97.7323 191.882 97.1623 192.014 96.6583 192.278C96.1663 192.53 95.7763 192.89 95.4883 193.358C95.2123 193.826 95.0743 194.366 95.0743 194.978C95.0743 195.59 95.2123 196.13 95.4883 196.598C95.7763 197.066 96.1663 197.432 96.6583 197.696C97.1623 197.96 97.7323 198.092 98.3683 198.092Z" fill="url(#paint10_linear_250_1790)"/>
<circle cx="120" cy="194" r="3.5" stroke="url(#paint11_linear_250_1790)"/>
<path d="M116 242L124 245V250L116 247V242Z" fill="url(#paint12_linear_250_1790)"/>
<path d="M116 234L124 237V242L116 239V234Z" fill="url(#paint13_linear_250_1790)"/>
<path d="M116 226L124 229V234L116 231V226Z" fill="url(#paint14_linear_250_1790)"/>
<defs>
<linearGradient id="paint0_linear_250_1790" x1="115.121" y1="17" x2="124.75" y2="18.4635" gradientUnits="userSpaceOnUse">
<stop stop-color="#282828"/>
<stop offset="1" stop-color="#EFEFEF"/>
</linearGradient>
<linearGradient id="paint1_linear_250_1790" x1="115.121" y1="9" x2="124.75" y2="10.4635" gradientUnits="userSpaceOnUse">
<stop stop-color="#282828"/>
<stop offset="1" stop-color="#EFEFEF"/>
</linearGradient>
<linearGradient id="paint2_linear_250_1790" x1="115.121" y1="1" x2="124.75" y2="2.46348" gradientUnits="userSpaceOnUse">
<stop stop-color="#282828"/>
<stop offset="1" stop-color="#EFEFEF"/>
</linearGradient>
<linearGradient id="paint3_linear_250_1790" x1="68.925" y1="42.5833" x2="93.0645" y2="77.9461" gradientUnits="userSpaceOnUse">
<stop stop-color="#7A96AC"/>
<stop offset="0.18" stop-color="#EAEFF3"/>
<stop offset="0.315" stop-color="#C2D4E1"/>
<stop offset="0.491919" stop-color="white"/>
<stop offset="0.615" stop-color="#D4DEE5"/>
<stop offset="0.785" stop-color="#ABBDC8"/>
<stop offset="0.955" stop-color="#BCCAD7"/>
</linearGradient>
<linearGradient id="paint4_linear_250_1790" x1="116.2" y1="52.1667" x2="123.567" y2="60.3333" gradientUnits="userSpaceOnUse">
<stop stop-color="#7A96AC"/>
<stop offset="0.18" stop-color="#EAEFF3"/>
<stop offset="0.315" stop-color="#C2D4E1"/>
<stop offset="0.491919" stop-color="white"/>
<stop offset="0.615" stop-color="#D4DEE5"/>
<stop offset="0.785" stop-color="#ABBDC8"/>
<stop offset="0.955" stop-color="#BCCAD7"/>
</linearGradient>
<linearGradient id="paint5_linear_250_1790" x1="118.1" y1="54.0833" x2="121.783" y2="58.1667" gradientUnits="userSpaceOnUse">
<stop stop-color="#7A96AC"/>
<stop offset="0.18" stop-color="#EAEFF3"/>
<stop offset="0.315" stop-color="#C2D4E1"/>
<stop offset="0.491919" stop-color="white"/>
<stop offset="0.615" stop-color="#D4DEE5"/>
<stop offset="0.785" stop-color="#ABBDC8"/>
<stop offset="0.955" stop-color="#BCCAD7"/>
</linearGradient>
<linearGradient id="paint6_linear_250_1790" x1="23.9752" y1="91.5" x2="101.677" y2="122.287" gradientUnits="userSpaceOnUse">
<stop stop-color="#282828"/>
<stop offset="1" stop-color="#EFEFEF"/>
</linearGradient>
<linearGradient id="paint7_linear_250_1790" x1="116" y1="106.933" x2="125.421" y2="105.028" gradientUnits="userSpaceOnUse">
<stop stop-color="#1A1A1A"/>
<stop offset="0.50575" stop-color="#575555"/>
<stop offset="1" stop-color="#C0C0C0"/>
</linearGradient>
<linearGradient id="paint8_linear_250_1790" x1="62.8227" y1="137.5" x2="107.711" y2="146.758" gradientUnits="userSpaceOnUse">
<stop stop-color="#282828"/>
<stop offset="1" stop-color="#EFEFEF"/>
</linearGradient>
<linearGradient id="paint9_linear_250_1790" x1="116" y1="152.933" x2="125.421" y2="151.028" gradientUnits="userSpaceOnUse">
<stop stop-color="#1A1A1A"/>
<stop offset="0.50575" stop-color="#575555"/>
<stop offset="1" stop-color="#C0C0C0"/>
</linearGradient>
<linearGradient id="paint10_linear_250_1790" x1="2.88652" y1="183.5" x2="93.5729" y2="228.784" gradientUnits="userSpaceOnUse">
<stop stop-color="#282828"/>
<stop offset="1" stop-color="#EFEFEF"/>
</linearGradient>
<linearGradient id="paint11_linear_250_1790" x1="116" y1="198.933" x2="125.421" y2="197.028" gradientUnits="userSpaceOnUse">
<stop stop-color="#1A1A1A"/>
<stop offset="0.50575" stop-color="#575555"/>
<stop offset="1" stop-color="#C0C0C0"/>
</linearGradient>
<linearGradient id="paint12_linear_250_1790" x1="115.121" y1="243" x2="124.75" y2="244.463" gradientUnits="userSpaceOnUse">
<stop stop-color="#282828"/>
<stop offset="1" stop-color="#EFEFEF"/>
</linearGradient>
<linearGradient id="paint13_linear_250_1790" x1="115.121" y1="235" x2="124.75" y2="236.463" gradientUnits="userSpaceOnUse">
<stop stop-color="#282828"/>
<stop offset="1" stop-color="#EFEFEF"/>
</linearGradient>
<linearGradient id="paint14_linear_250_1790" x1="115.121" y1="227" x2="124.75" y2="228.463" gradientUnits="userSpaceOnUse">
<stop stop-color="#282828"/>
<stop offset="1" stop-color="#EFEFEF"/>
</linearGradient>
</defs>
</svg>
