<svg width="54" height="54" viewBox="0 0 54 54" fill="none" xmlns="http://www.w3.org/2000/svg">
<path fill-rule="evenodd" clip-rule="evenodd" d="M5.0625 27C5.0625 14.8883 14.8883 5.0625 27 5.0625C39.1117 5.0625 48.9375 14.8883 48.9375 27C48.9375 39.1117 39.1117 48.9375 27 48.9375C14.8883 48.9375 5.0625 39.1117 5.0625 27ZM27 8.4375C16.7523 8.4375 8.4375 16.7523 8.4375 27C8.4375 37.2477 16.7523 45.5625 27 45.5625C37.2477 45.5625 45.5625 37.2477 45.5625 27C45.5625 16.7523 37.2477 8.4375 27 8.4375Z" fill="#BFA634"/>
<path fill-rule="evenodd" clip-rule="evenodd" d="M19.0568 19.0568C19.7158 18.3977 20.7842 18.3977 21.4432 19.0568L34.9432 32.5568C35.6023 33.2158 35.6023 34.2842 34.9432 34.9432C34.2842 35.6023 33.2158 35.6023 32.5568 34.9432L19.0568 21.4432C18.3977 20.7842 18.3977 19.7158 19.0568 19.0568Z" fill="#BFA634"/>
<path fill-rule="evenodd" clip-rule="evenodd" d="M34.9432 19.0568C35.6023 19.7158 35.6023 20.7842 34.9432 21.4432L21.4432 34.9432C20.7842 35.6023 19.7158 35.6023 19.0568 34.9432C18.3977 34.2842 18.3977 33.2158 19.0568 32.5568L32.5568 19.0568C33.2158 18.3977 34.2842 18.3977 34.9432 19.0568Z" fill="#BFA634"/>
</svg>
